<?xml version="1.0" encoding="UTF-8" standalone="no"?>
<svg
   xmlns:dc="http://purl.org/dc/elements/1.1/"
   xmlns:cc="http://creativecommons.org/ns#"
   xmlns:rdf="http://www.w3.org/1999/02/22-rdf-syntax-ns#"
   xmlns:svg="http://www.w3.org/2000/svg"
   xmlns="http://www.w3.org/2000/svg"
   xmlns:sodipodi="http://sodipodi.sourceforge.net/DTD/sodipodi-0.dtd"
   xmlns:inkscape="http://www.inkscape.org/namespaces/inkscape"
   width="1000"
   height="1000"
   viewBox="0 0 264.58333 264.58334"
   version="1.1"
   id="svg5596"
   inkscape:version="1.0.2-2 (e86c870879, 2021-01-15)"
   sodipodi:docname="LeafTech letter SHAPES - Numbers.svg">
  <defs
     id="defs5590">
    <rect
       x="-1607.4227"
       y="346.0784"
       width="358.5087"
       height="51.540363"
       id="rect2132-1-5" />
    <rect
       x="-1607.4227"
       y="346.0784"
       width="358.5087"
       height="51.540363"
       id="rect5528" />
    <inkscape:path-effect
       effect="fillet_chamfer"
       id="path-effect7034"
       is_visible="true"
       lpeversion="1"
       satellites_param="F,0,0,1,0,0,0,1 @ F,0,0,1,0,41.449747,0,1 @ F,0,0,1,0,0,0,1 @ F,0,0,1,0,41.630225,0,1"
       unit="px"
       method="auto"
       mode="F"
       radius="46"
       chamfer_steps="1"
       flexible="false"
       use_knot_distance="true"
       apply_no_radius="true"
       apply_with_radius="true"
       only_selected="false"
       hide_knots="false" />
  </defs>
  <sodipodi:namedview
     id="base"
     pagecolor="#ffffff"
     bordercolor="#666666"
     borderopacity="1.0"
     inkscape:pageopacity="0.0"
     inkscape:pageshadow="2"
     inkscape:zoom="0.15111573"
     inkscape:cx="-676.55021"
     inkscape:cy="298.94901"
     inkscape:document-units="px"
     inkscape:current-layer="layer2"
     inkscape:document-rotation="0"
     showgrid="false"
     inkscape:window-width="1920"
     inkscape:window-height="1027"
     inkscape:window-x="-8"
     inkscape:window-y="-8"
     inkscape:window-maximized="1"
     units="px"
     showguides="true"
     inkscape:guide-bbox="true"
     inkscape:snap-global="true"
     inkscape:snap-bbox="true"
     inkscape:snap-page="true"
     inkscape:bbox-paths="true"
     inkscape:bbox-nodes="true"
     inkscape:object-paths="true"
     inkscape:snap-intersection-paths="true"
     inkscape:snap-smooth-nodes="true"
     inkscape:snap-midpoints="true"
     inkscape:snap-nodes="true"
     inkscape:snap-bbox-edge-midpoints="true"
     inkscape:snap-bbox-midpoints="true"
     inkscape:snap-object-midpoints="true"
     inkscape:snap-center="true"
     inkscape:snap-text-baseline="true">
    <sodipodi:guide
       position="-415.01785,52.916667"
       orientation="0,1"
       id="guide6363"
       inkscape:label=""
       inkscape:locked="false"
       inkscape:color="rgb(0,0,255)" />
    <sodipodi:guide
       position="145.18594,-133.65494"
       orientation="0,-1"
       id="guide890" />
    <sodipodi:guide
       position="-80.963005,-245.67769"
       orientation="0,-1"
       id="guide892" />
    <sodipodi:guide
       position="177.21656,264.58334"
       orientation="0,-1"
       id="guide894" />
    <sodipodi:guide
       position="96.308532,178.06458"
       orientation="0,1"
       id="guide7415"
       inkscape:label=""
       inkscape:locked="false"
       inkscape:color="rgb(0,0,255)" />
  </sodipodi:namedview>
  <metadata
     id="metadata5593">
    <rdf:RDF>
      <cc:Work
         rdf:about="">
        <dc:format>image/svg+xml</dc:format>
        <dc:type
           rdf:resource="http://purl.org/dc/dcmitype/StillImage" />
        <dc:title />
      </cc:Work>
    </rdf:RDF>
  </metadata>
  <g
     inkscape:label="Layer 1"
     inkscape:groupmode="layer"
     id="layer1"
     style="display:inline" />
  <g
     id="layer2"
     inkscape:label="Numbers"
     transform="matrix(1.3758252,0,0,1.3758252,-701.68541,-514.32482)"
     inkscape:transform-center-x="-772.10766"
     inkscape:transform-center-y="138.0337"
     style="stroke-width:0.726836"
     inkscape:groupmode="layer">
    <path
       style="color:#000000;font-style:normal;font-variant:normal;font-weight:normal;font-stretch:normal;font-size:medium;line-height:normal;font-family:sans-serif;font-variant-ligatures:normal;font-variant-position:normal;font-variant-caps:normal;font-variant-numeric:normal;font-variant-alternates:normal;font-variant-east-asian:normal;font-feature-settings:normal;font-variation-settings:normal;text-indent:0;text-align:start;text-decoration:none;text-decoration-line:none;text-decoration-style:solid;text-decoration-color:#000000;letter-spacing:normal;word-spacing:normal;text-transform:none;writing-mode:lr-tb;direction:ltr;text-orientation:mixed;dominant-baseline:auto;baseline-shift:baseline;text-anchor:start;white-space:normal;shape-padding:0;shape-margin:0;inline-size:0;clip-rule:nonzero;display:inline;overflow:visible;visibility:visible;opacity:1;isolation:auto;mix-blend-mode:normal;color-interpolation:sRGB;color-interpolation-filters:linearRGB;solid-color:#000000;solid-opacity:1;vector-effect:none;fill:#000000;fill-opacity:1;fill-rule:nonzero;stroke:none;stroke-width:0.726836;stroke-linecap:round;stroke-linejoin:miter;stroke-miterlimit:4;stroke-dasharray:none;stroke-dashoffset:0;stroke-opacity:1;color-rendering:auto;image-rendering:auto;shape-rendering:auto;text-rendering:auto;enable-background:accumulate;stop-color:#000000;stop-opacity:1"
       d="m 283.18851,373.83008 a 4.387845,4.387845 0 0 0 -0.17578,0.004 4.387845,4.387845 0 0 0 -0.52734,0.0527 4.387845,4.387845 0 0 0 -0.34375,0.0703 4.387845,4.387845 0 0 0 -0.50391,0.15625 4.387845,4.387845 0 0 0 -0.48242,0.2168 4.387845,4.387845 0 0 0 -0.1543,0.084 4.387845,4.387845 0 0 0 -0.29883,0.1875 4.387845,4.387845 0 0 0 -0.28125,0.21094 4.387845,4.387845 0 0 0 -0.26367,0.23438 4.387845,4.387845 0 0 0 -0.125,0.12304 4.387845,4.387845 0 0 0 -0.34375,0.40235 4.387845,4.387845 0 0 0 -0.45703,0.75 4.387845,4.387845 0 0 0 -0.19922,0.49023 4.387845,4.387845 0 0 0 -0.0547,0.16797 4.387845,4.387845 0 0 0 -0.14257,0.6875 4.387845,4.387845 0 0 0 -0.0312,0.35156 4.387845,4.387845 0 0 0 -0.004,0.19922 c 0,10.9776 -8.80554,19.7832 -19.7832,19.7832 a 4.387845,4.387845 0 0 0 -4.38672,4.38672 4.387845,4.387845 0 0 0 4.38672,4.38867 c 7.67787,0 14.6403,-3.09572 19.7832,-8.06054 v 15.75781 36.25586 48.33984 c 0,10.97429 -8.8004,19.77789 -19.77344,19.78321 -0.003,0 -0.007,0 -0.01,0 a 4.387845,4.387845 0 0 0 -0.43945,0.0234 4.387845,4.387845 0 0 0 -0.0781,0.008 4.387845,4.387845 0 0 0 -0.01,0.002 4.387845,4.387845 0 0 0 -0.0469,0.006 4.387845,4.387845 0 0 0 -3.8125,4.34961 4.387845,4.387845 0 0 0 4.01367,4.37109 4.387845,4.387845 0 0 0 0.008,0 4.387845,4.387845 0 0 0 0.16797,0.0117 4.387845,4.387845 0 0 0 0.008,0 4.387845,4.387845 0 0 0 0.16797,0.004 4.387845,4.387845 0 0 0 0.008,0 4.387845,4.387845 0 0 0 0.0137,0 c 0.003,0 0.007,0 0.01,0 h 48.12696 a 4.387845,4.387845 0 0 0 4.38867,-4.38672 4.387845,4.387845 0 0 0 -4.38867,-4.38867 h -27.6366 c 4.96474,-5.14293 8.05859,-12.10542 8.05859,-19.78321 v -48.33984 -36.25586 -36.25586 a 4.387845,4.387845 0 0 0 -0.0312,-0.52734 4.387845,4.387845 0 0 0 -0.19336,-0.85743 4.387845,4.387845 0 0 0 -0.0586,-0.16601 4.387845,4.387845 0 0 0 -0.0645,-0.16406 4.387845,4.387845 0 0 0 -0.0723,-0.16016 4.387845,4.387845 0 0 0 -0.0781,-0.1582 4.387845,4.387845 0 0 0 -0.17578,-0.30469 4.387845,4.387845 0 0 0 -0.0977,-0.14844 4.387845,4.387845 0 0 0 -0.21094,-0.28125 4.387845,4.387845 0 0 0 -0.11328,-0.13476 4.387845,4.387845 0 0 0 -0.11914,-0.12891 4.387845,4.387845 0 0 0 -0.52539,-0.46875 4.387845,4.387845 0 0 0 -0.91211,-0.53125 4.387845,4.387845 0 0 0 -0.32813,-0.125 4.387845,4.387845 0 0 0 -0.33789,-0.0996 4.387845,4.387845 0 0 0 -0.17187,-0.0391 4.387845,4.387845 0 0 0 -0.17383,-0.0332 4.387845,4.387845 0 0 0 -0.52344,-0.0547 4.387845,4.387845 0 0 0 -0.19922,-0.006 z"
       id="path2784" />
    <path
       style="color:#000000;font-style:normal;font-variant:normal;font-weight:normal;font-stretch:normal;font-size:medium;line-height:normal;font-family:sans-serif;font-variant-ligatures:normal;font-variant-position:normal;font-variant-caps:normal;font-variant-numeric:normal;font-variant-alternates:normal;font-variant-east-asian:normal;font-feature-settings:normal;font-variation-settings:normal;text-indent:0;text-align:start;text-decoration:none;text-decoration-line:none;text-decoration-style:solid;text-decoration-color:#000000;letter-spacing:normal;word-spacing:normal;text-transform:none;writing-mode:lr-tb;direction:ltr;text-orientation:mixed;dominant-baseline:auto;baseline-shift:baseline;text-anchor:start;white-space:normal;shape-padding:0;shape-margin:0;inline-size:0;clip-rule:nonzero;display:inline;overflow:visible;visibility:visible;opacity:1;isolation:auto;mix-blend-mode:normal;color-interpolation:sRGB;color-interpolation-filters:linearRGB;solid-color:#000000;solid-opacity:1;vector-effect:none;fill:#000000;fill-opacity:1;fill-rule:nonzero;stroke:none;stroke-width:0.726836;stroke-linecap:round;stroke-linejoin:miter;stroke-miterlimit:4;stroke-dasharray:none;stroke-dashoffset:0;stroke-opacity:1;color-rendering:auto;image-rendering:auto;shape-rendering:auto;text-rendering:auto;enable-background:accumulate;stop-color:#000000;stop-opacity:1"
       d="m 363.84476,373.83008 c -22.39495,0 -40.64453,18.24959 -40.64453,40.64453 a 4.387845,4.387845 0 0 0 4.38867,4.38867 4.387845,4.387845 0 0 0 4.38672,-4.38867 c 0,-17.65224 14.21692,-31.86719 31.86914,-31.86719 h 31.86719 v 19.7832 12.08399 c 0,10.97761 -8.80554,19.78291 -19.7832,19.7832 -29.06938,3.8e-4 -52.72852,23.65904 -52.72852,52.72852 v 40.64258 h 52.73047 c 15.72009,0 28.55664,-12.83656 28.55664,-28.55664 a 4.387845,4.387845 0 0 0 -4.38672,-4.38868 4.387845,4.387845 0 0 0 -4.38867,4.38868 c 0,10.97733 -8.80392,19.78125 -19.78125,19.78125 h -43.95508 v -31.86719 c 0,-24.32676 19.6284,-43.95281 43.95508,-43.95313 15.72028,-4.1e-4 28.55664,-12.83824 28.55664,-28.55859 v -12.08399 -28.56054 z"
       id="path3030" />
    <path
       style="color:#000000;font-style:normal;font-variant:normal;font-weight:normal;font-stretch:normal;font-size:medium;line-height:normal;font-family:sans-serif;font-variant-ligatures:normal;font-variant-position:normal;font-variant-caps:normal;font-variant-numeric:normal;font-variant-alternates:normal;font-variant-east-asian:normal;font-feature-settings:normal;font-variation-settings:normal;text-indent:0;text-align:start;text-decoration:none;text-decoration-line:none;text-decoration-style:solid;text-decoration-color:#000000;letter-spacing:normal;word-spacing:normal;text-transform:none;writing-mode:lr-tb;direction:ltr;text-orientation:mixed;dominant-baseline:auto;baseline-shift:baseline;text-anchor:start;white-space:normal;shape-padding:0;shape-margin:0;inline-size:0;clip-rule:nonzero;display:inline;overflow:visible;visibility:visible;opacity:1;isolation:auto;mix-blend-mode:normal;color-interpolation:sRGB;color-interpolation-filters:linearRGB;solid-color:#000000;solid-opacity:1;vector-effect:none;fill:#000000;fill-opacity:1;fill-rule:nonzero;stroke:none;stroke-width:0.726836;stroke-linecap:round;stroke-linejoin:miter;stroke-miterlimit:4;stroke-dasharray:none;stroke-dashoffset:0;stroke-opacity:1;color-rendering:auto;image-rendering:auto;shape-rendering:auto;text-rendering:auto;enable-background:accumulate;stop-color:#000000;stop-opacity:1"
       d="m 461.57917,373.83008 c -22.39497,0 -40.64258,18.24967 -40.64258,40.64453 a 4.387845,4.387845 0 0 0 4.38672,4.38867 4.387845,4.387845 0 0 0 4.38867,-4.38867 c 0,-17.65214 14.21498,-31.86719 31.86719,-31.86719 h 31.86914 v 19.7832 12.08399 c 0,10.97771 -8.80554,19.78291 -19.7832,19.7832 h -12.08399 a 4.387845,4.387845 0 0 0 -0.17578,0.004 4.387845,4.387845 0 0 0 -0.52539,0.0527 4.387845,4.387845 0 0 0 -0.3457,0.0703 4.387845,4.387845 0 0 0 -0.16992,0.0449 4.387845,4.387845 0 0 0 -0.16797,0.0527 4.387845,4.387845 0 0 0 -0.95313,0.44922 4.387845,4.387845 0 0 0 -0.29101,0.20117 4.387845,4.387845 0 0 0 -0.13868,0.10742 4.387845,4.387845 0 0 0 -0.13476,0.11329 4.387845,4.387845 0 0 0 -0.12891,0.11914 4.387845,4.387845 0 0 0 -0.125,0.125 4.387845,4.387845 0 0 0 -0.12109,0.1289 4.387845,4.387845 0 0 0 -0.11328,0.13477 4.387845,4.387845 0 0 0 -0.10938,0.13672 4.387845,4.387845 0 0 0 -0.20117,0.28906 4.387845,4.387845 0 0 0 -0.0918,0.15039 4.387845,4.387845 0 0 0 -0.0859,0.1543 4.387845,4.387845 0 0 0 -0.0781,0.1582 4.387845,4.387845 0 0 0 -0.0742,0.16016 4.387845,4.387845 0 0 0 -0.0664,0.16211 4.387845,4.387845 0 0 0 -0.0586,0.16601 4.387845,4.387845 0 0 0 -0.0527,0.16797 4.387845,4.387845 0 0 0 -0.0469,0.16992 4.387845,4.387845 0 0 0 -0.0723,0.34571 4.387845,4.387845 0 0 0 -0.0254,0.17382 4.387845,4.387845 0 0 0 -0.0195,0.17578 4.387845,4.387845 0 0 0 -0.0156,0.37305 4.387845,4.387845 0 0 0 0.0137,0.35352 4.387845,4.387845 0 0 0 0.043,0.34961 4.387845,4.387845 0 0 0 0.0703,0.34375 4.387845,4.387845 0 0 0 0.0977,0.33984 4.387845,4.387845 0 0 0 0.125,0.32813 4.387845,4.387845 0 0 0 0.15039,0.31835 4.387845,4.387845 0 0 0 0.084,0.1543 4.387845,4.387845 0 0 0 0.0918,0.15235 4.387845,4.387845 0 0 0 0.66407,0.81835 4.387845,4.387845 0 0 0 0.1289,0.11915 4.387845,4.387845 0 0 0 0.41602,0.32617 4.387845,4.387845 0 0 0 0.60742,0.35547 4.387845,4.387845 0 0 0 0.16016,0.0723 4.387845,4.387845 0 0 0 0.16406,0.0664 4.387845,4.387845 0 0 0 0.16601,0.0586 4.387845,4.387845 0 0 0 0.16797,0.0547 4.387845,4.387845 0 0 0 0.6875,0.14258 4.387845,4.387845 0 0 0 0.17578,0.0195 4.387845,4.387845 0 0 0 0.17578,0.0117 4.387845,4.387845 0 0 0 0.19922,0.004 c 17.65175,0 31.86719,14.21561 31.86719,31.86719 0,24.32671 -19.62625,43.95265 -43.95312,43.95313 h -19.53711 c 0.26832,-6.43042 0.96476,-12.74828 2.34375,-18.82227 a 4.387845,4.387845 0 0 0 -3.3086,-5.25 4.387845,4.387845 0 0 0 -5.25,3.30664 c -1.83735,8.09296 -2.80655,16.51515 -2.80664,25.1543 v 4.38672 h 28.5586 c 28.92368,-5.7e-4 52.47153,-23.42745 52.70703,-52.29688 a 4.387845,4.387845 0 0 0 0.0215,-0.43164 4.387845,4.387845 0 0 0 -0.0879,-0.875 4.387845,4.387845 0 0 0 -0.002,-0.006 c -0.30196,-13.75819 -7.42825,-25.85544 -18.18164,-32.98633 10.65276,-4.15446 18.27148,-14.47216 18.27148,-26.55859 v -12.08399 -28.56054 z"
       id="path3128" />
    <path
       style="color:#000000;font-style:normal;font-variant:normal;font-weight:normal;font-stretch:normal;font-size:medium;line-height:normal;font-family:sans-serif;font-variant-ligatures:normal;font-variant-position:normal;font-variant-caps:normal;font-variant-numeric:normal;font-variant-alternates:normal;font-variant-east-asian:normal;font-feature-settings:normal;font-variation-settings:normal;text-indent:0;text-align:start;text-decoration:none;text-decoration-line:none;text-decoration-style:solid;text-decoration-color:#000000;letter-spacing:normal;word-spacing:normal;text-transform:none;writing-mode:lr-tb;direction:ltr;text-orientation:mixed;dominant-baseline:auto;baseline-shift:baseline;text-anchor:start;white-space:normal;shape-padding:0;shape-margin:0;inline-size:0;clip-rule:nonzero;display:inline;overflow:visible;visibility:visible;opacity:1;isolation:auto;mix-blend-mode:normal;color-interpolation:sRGB;color-interpolation-filters:linearRGB;solid-color:#000000;solid-opacity:1;vector-effect:none;fill:#000b0e;fill-opacity:1;fill-rule:nonzero;stroke:none;stroke-width:0.726836;stroke-linecap:round;stroke-linejoin:miter;stroke-miterlimit:4;stroke-dasharray:none;stroke-dashoffset:0;stroke-opacity:1;color-rendering:auto;image-rendering:auto;shape-rendering:auto;text-rendering:auto;enable-background:accumulate;stop-color:#000000;stop-opacity:1"
       d="m 585.21198,373.83008 c -22.09172,0 -41.27745,15.34489 -54.89453,35.23242 -13.61708,19.88753 -22.00586,44.62862 -22.00586,65.83789 v 16.47266 h 55.85156 c -6.75993,10.80072 -16.1239,20.29094 -29.36523,27.90625 a 4.387845,4.387845 0 0 0 -1.61719,5.99218 4.387845,4.387845 0 0 0 5.99219,1.61524 c 16.28769,-9.36731 27.56268,-21.66172 35.19141,-35.51367 h 10.84765 a 4.387845,4.387845 0 0 0 4.38672,-4.38672 4.387845,4.387845 0 0 0 -4.38672,-4.38867 h -6.62304 c 0.80456,-1.8795 1.59968,-3.76383 2.29296,-5.6836 7.11714,-19.70802 8.7168,-41.34577 8.7168,-62.43945 V 396.3457 373.83008 Z m -4.38867,9.16601 v 13.34961 18.12891 c 0,20.63975 -1.63697,41.29831 -8.19531,59.45898 -1.07096,2.96558 -2.32354,5.83764 -3.66406,8.66407 h -51.875 v -7.69727 c 0,-18.83791 7.84387,-42.43958 20.4707,-60.88086 11.59073,-16.92807 26.93729,-29.11554 43.26367,-31.02344 z"
       id="path6690-2-4" />
    <path
       style="color:#000000;font-style:normal;font-variant:normal;font-weight:normal;font-stretch:normal;font-size:medium;line-height:normal;font-family:sans-serif;font-variant-ligatures:normal;font-variant-position:normal;font-variant-caps:normal;font-variant-numeric:normal;font-variant-alternates:normal;font-variant-east-asian:normal;font-feature-settings:normal;font-variation-settings:normal;text-indent:0;text-align:start;text-decoration:none;text-decoration-line:none;text-decoration-style:solid;text-decoration-color:#000000;letter-spacing:normal;word-spacing:normal;text-transform:none;writing-mode:lr-tb;direction:ltr;text-orientation:mixed;dominant-baseline:auto;baseline-shift:baseline;text-anchor:start;white-space:normal;shape-padding:0;shape-margin:0;inline-size:0;clip-rule:nonzero;display:inline;overflow:visible;visibility:visible;opacity:1;isolation:auto;mix-blend-mode:normal;color-interpolation:sRGB;color-interpolation-filters:linearRGB;solid-color:#000000;solid-opacity:1;vector-effect:none;fill:#000000;fill-opacity:1;fill-rule:nonzero;stroke:none;stroke-width:0.726836;stroke-linecap:round;stroke-linejoin:miter;stroke-miterlimit:4;stroke-dasharray:none;stroke-dashoffset:0;stroke-opacity:1;color-rendering:auto;image-rendering:auto;shape-rendering:auto;text-rendering:auto;enable-background:accumulate;stop-color:#000000;stop-opacity:1"
       d="m 779.2198,373.83203 c -42.41795,0 -76.90039,34.47991 -76.90039,76.89844 v 36.25586 40.64258 h 40.64454 c 22.39487,0 40.64257,-18.2477 40.64257,-40.64258 v -52.72852 h -4.38672 -36.25585 c -11.59272,0 -21.94271,6.30893 -29.14649,15.91407 -1.01406,1.35209 -1.82782,2.91292 -2.72266,4.39257 v -3.83398 c 0,-37.67581 30.44984,-68.12305 68.125,-68.12305 a 4.387845,4.387845 0 0 0 4.38672,-4.38867 4.387845,4.387845 0 0 0 -4.38672,-4.38672 z m -36.25585,69.20117 h 31.86718 v 43.95313 c 0,17.65213 -14.21506,31.86719 -31.86718,31.86719 H 711.0948 v -31.84375 a 4.387845,4.387845 0 0 0 0,-0.0234 c 0,-12.4599 3.82396,-23.65778 9.74219,-31.54883 5.91823,-7.89105 13.69608,-12.4043 22.12696,-12.4043 z"
       id="path1990-78-2-0-2" />
    <path
       style="color:#000000;font-style:normal;font-variant:normal;font-weight:normal;font-stretch:normal;font-size:medium;line-height:normal;font-family:sans-serif;font-variant-ligatures:normal;font-variant-position:normal;font-variant-caps:normal;font-variant-numeric:normal;font-variant-alternates:normal;font-variant-east-asian:normal;font-feature-settings:normal;font-variation-settings:normal;text-indent:0;text-align:start;text-decoration:none;text-decoration-line:none;text-decoration-style:solid;text-decoration-color:#000000;letter-spacing:normal;word-spacing:normal;text-transform:none;writing-mode:lr-tb;direction:ltr;text-orientation:mixed;dominant-baseline:auto;baseline-shift:baseline;text-anchor:start;white-space:normal;shape-padding:0;shape-margin:0;inline-size:0;clip-rule:nonzero;display:inline;overflow:visible;visibility:visible;opacity:1;isolation:auto;mix-blend-mode:normal;color-interpolation:sRGB;color-interpolation-filters:linearRGB;solid-color:#000000;solid-opacity:1;vector-effect:none;fill:#000000;fill-opacity:1;fill-rule:nonzero;stroke:none;stroke-width:0.726836;stroke-linecap:round;stroke-linejoin:miter;stroke-miterlimit:4;stroke-dasharray:none;stroke-dashoffset:0;stroke-opacity:1;color-rendering:auto;image-rendering:auto;shape-rendering:auto;text-rendering:auto;enable-background:accumulate;stop-color:#000000;stop-opacity:1"
       d="m 805.14949,373.83008 a 4.387845,4.387845 0 0 0 -4.38867,4.38867 4.387845,4.387845 0 0 0 4.38867,4.38672 l 61.86133,0.008 c -25.97828,26.88844 -42.07812,63.42559 -42.07812,103.96875 v 36.66406 a 4.387845,4.387845 0 0 0 4.38671,4.38672 4.387845,4.387845 0 0 0 4.38868,-4.38672 v -36.66406 c 0,-41.94634 18.09685,-79.32523 46.87304,-105.08594 l 8.55274,-7.65429 z"
       id="path3580" />
    <path
       style="color:#000000;font-style:normal;font-variant:normal;font-weight:normal;font-stretch:normal;font-size:medium;line-height:normal;font-family:sans-serif;font-variant-ligatures:normal;font-variant-position:normal;font-variant-caps:normal;font-variant-numeric:normal;font-variant-alternates:normal;font-variant-east-asian:normal;font-feature-settings:normal;font-variation-settings:normal;text-indent:0;text-align:start;text-decoration:none;text-decoration-line:none;text-decoration-style:solid;text-decoration-color:#000000;letter-spacing:normal;word-spacing:normal;text-transform:none;writing-mode:lr-tb;direction:ltr;text-orientation:mixed;dominant-baseline:auto;baseline-shift:baseline;text-anchor:start;white-space:normal;shape-padding:0;shape-margin:0;inline-size:0;clip-rule:nonzero;display:inline;overflow:visible;visibility:visible;opacity:1;isolation:auto;mix-blend-mode:normal;color-interpolation:sRGB;color-interpolation-filters:linearRGB;solid-color:#000000;solid-opacity:1;vector-effect:none;fill:#000000;fill-opacity:1;fill-rule:nonzero;stroke:none;stroke-width:0.726836;stroke-linecap:round;stroke-linejoin:miter;stroke-miterlimit:4;stroke-dasharray:none;stroke-dashoffset:0;stroke-opacity:1;color-rendering:auto;image-rendering:auto;shape-rendering:auto;text-rendering:auto;enable-background:accumulate;stop-color:#000000;stop-opacity:1"
       d="m 943.86289,373.83008 c -22.3952,0 -40.6445,18.24932 -40.6445,40.64453 v 27.39258 l 24.1758,8.03906 c -14.2067,6.34384 -24.1758,20.55482 -24.1758,37.08008 v 40.64258 h 40.6426 c 22.3949,0 40.6445,-18.24771 40.6445,-40.64258 v -27.33594 l -3.0039,-0.99805 -21.2402,-7.06445 c 14.2435,-6.32835 24.2441,-20.5612 24.2441,-37.11328 v -40.64453 z m 0,8.77734 h 31.8672 v 31.86719 c 0,17.48818 -13.9666,31.55759 -31.3906,31.81836 l -32.3457,-10.75586 v -21.0625 c 0,-17.65249 14.2166,-31.86719 31.8691,-31.86719 z m -0.6152,72.57227 32.4824,10.80078 v 21.00586 c 0,17.65212 -14.217,31.86719 -31.8691,31.86719 h -31.8672 v -31.86719 c 0,-17.44187 13.8945,-31.47356 31.2539,-31.80664 z"
       id="path3633" />
    <path
       style="color:#000000;font-style:normal;font-variant:normal;font-weight:normal;font-stretch:normal;font-size:medium;line-height:normal;font-family:sans-serif;font-variant-ligatures:normal;font-variant-position:normal;font-variant-caps:normal;font-variant-numeric:normal;font-variant-alternates:normal;font-variant-east-asian:normal;font-feature-settings:normal;font-variation-settings:normal;text-indent:0;text-align:start;text-decoration:none;text-decoration-line:none;text-decoration-style:solid;text-decoration-color:#000000;letter-spacing:normal;word-spacing:normal;text-transform:none;writing-mode:lr-tb;direction:ltr;text-orientation:mixed;dominant-baseline:auto;baseline-shift:baseline;text-anchor:start;white-space:normal;shape-padding:0;shape-margin:0;inline-size:0;clip-rule:nonzero;display:inline;overflow:visible;visibility:visible;opacity:1;isolation:auto;mix-blend-mode:normal;color-interpolation:sRGB;color-interpolation-filters:linearRGB;solid-color:#000000;solid-opacity:1;vector-effect:none;fill:#000000;fill-opacity:1;fill-rule:nonzero;stroke:none;stroke-width:0.726836;stroke-linecap:butt;stroke-linejoin:miter;stroke-miterlimit:4;stroke-dasharray:none;stroke-dashoffset:0;stroke-opacity:1;color-rendering:auto;image-rendering:auto;shape-rendering:auto;text-rendering:auto;enable-background:accumulate;stop-color:#000000;stop-opacity:1"
       d="m 1108.4938,373.83008 v 76.90039 12.08594 c 0,35.74384 29.0706,64.8125 64.8145,64.8125 h 16.4726 v -4.38672 -72.51172 -12.08594 c 0,-35.74394 -29.0705,-64.81445 -64.8144,-64.81445 z m 8.7754,8.77734 h 7.6973 c 17.3973,0 32.9134,7.88822 43.1835,20.28711 l -22.9374,45.87305 -20.752,41.5039 c -4.5622,-8.11354 -7.1914,-17.46438 -7.1914,-27.45507 v -12.08594 z m 56.5449,28.58008 c 4.5626,8.11378 7.1914,17.4659 7.1914,27.45703 v 12.08594 68.12305 h -7.6972 c -17.3973,0 -32.9116,-7.88824 -43.1817,-20.28711 l 22.9356,-45.87305 z"
       id="path4802" />
    <path
       style="color:#000000;font-style:normal;font-variant:normal;font-weight:normal;font-stretch:normal;font-size:medium;line-height:normal;font-family:sans-serif;font-variant-ligatures:normal;font-variant-position:normal;font-variant-caps:normal;font-variant-numeric:normal;font-variant-alternates:normal;font-variant-east-asian:normal;font-feature-settings:normal;font-variation-settings:normal;text-indent:0;text-align:start;text-decoration:none;text-decoration-line:none;text-decoration-style:solid;text-decoration-color:#000000;letter-spacing:normal;word-spacing:normal;text-transform:none;writing-mode:lr-tb;direction:ltr;text-orientation:mixed;dominant-baseline:auto;baseline-shift:baseline;text-anchor:start;white-space:normal;shape-padding:0;shape-margin:0;inline-size:0;clip-rule:nonzero;display:inline;overflow:visible;visibility:visible;opacity:1;isolation:auto;mix-blend-mode:normal;color-interpolation:sRGB;color-interpolation-filters:linearRGB;solid-color:#000000;solid-opacity:1;vector-effect:none;fill:#000000;fill-opacity:1;fill-rule:nonzero;stroke:none;stroke-width:0.726835;stroke-linecap:round;stroke-linejoin:miter;stroke-miterlimit:4;stroke-dasharray:none;stroke-dashoffset:0;stroke-opacity:1;color-rendering:auto;image-rendering:auto;shape-rendering:auto;text-rendering:auto;enable-background:accumulate;stop-color:#000000;stop-opacity:1"
       d="m 1004.13,373.83006 v 40.64349 c 0,29.06994 23.6596,52.72926 52.7293,52.72926 h 15.3141 c -7.1647,24.27112 -22.442,43.59076 -41.2827,52.08545 a 4.3879006,4.3879006 0 0 0 -2.1954,5.80352 4.3879006,4.3879006 0 0 0 5.8035,2.19784 c 30.1334,-13.58632 50.9206,-49.37185 50.9206,-90.3519 v -3.23072 -7.07695 a 4.3879006,4.3879006 0 0 0 -0.087,-0.85839 c -0.4718,-28.7046 -23.9004,-51.9416 -52.7151,-51.9416 z m 8.7749,8.77484 h 19.712 c 24.366,0 44.0252,19.65925 44.0252,44.02515 v 7.07695 3.23072 c 0,7.44215 -0.9469,14.58049 -2.3511,21.49024 h -17.4317 c -24.3269,0 -43.9544,-19.62714 -43.9544,-43.95441 z"
       id="path1990-78-2-0" />
    <path
       style="color:#000000;font-style:normal;font-variant:normal;font-weight:normal;font-stretch:normal;font-size:medium;line-height:normal;font-family:sans-serif;font-variant-ligatures:normal;font-variant-position:normal;font-variant-caps:normal;font-variant-numeric:normal;font-variant-alternates:normal;font-variant-east-asian:normal;font-feature-settings:normal;font-variation-settings:normal;text-indent:0;text-align:start;text-decoration:none;text-decoration-line:none;text-decoration-style:solid;text-decoration-color:#000000;letter-spacing:normal;word-spacing:normal;text-transform:none;writing-mode:lr-tb;direction:ltr;text-orientation:mixed;dominant-baseline:auto;baseline-shift:baseline;text-anchor:start;white-space:normal;shape-padding:0;shape-margin:0;inline-size:0;clip-rule:nonzero;display:inline;overflow:visible;visibility:visible;opacity:1;isolation:auto;mix-blend-mode:normal;color-interpolation:sRGB;color-interpolation-filters:linearRGB;solid-color:#000000;solid-opacity:1;vector-effect:none;fill:#000000;fill-opacity:1;fill-rule:nonzero;stroke:none;stroke-width:0.726836;stroke-linecap:round;stroke-linejoin:miter;stroke-miterlimit:4;stroke-dasharray:none;stroke-dashoffset:0;stroke-opacity:1;color-rendering:auto;image-rendering:auto;shape-rendering:auto;text-rendering:auto;enable-background:accumulate;stop-color:#000000;stop-opacity:1"
       d="m 631.12642,373.82979 c -12.35751,0 -22.46881,10.11126 -22.46881,22.46879 v 36.26619 a 4.3892663,4.3892663 0 0 0 0.0166,0.38686 4.3892663,4.3892663 0 0 0 0.0213,0.19344 4.3892663,4.3892663 0 0 0 0.0307,0.19107 4.3892663,4.3892663 0 0 0 0.20052,0.74778 4.3892663,4.3892663 0 0 0 0.15097,0.35619 4.3892663,4.3892663 0 0 0 0.17928,0.34204 4.3892663,4.3892663 0 0 0 0.2123,0.32555 4.3892663,4.3892663 0 0 0 0.11317,0.15568 4.3892663,4.3892663 0 0 0 0.12266,0.14861 4.3892663,4.3892663 0 0 0 0.12974,0.14625 4.3892663,4.3892663 0 0 0 0.13446,0.13682 4.3892663,4.3892663 0 0 0 0.28779,0.25949 4.3892663,4.3892663 0 0 0 0.30902,0.23353 4.3892663,4.3892663 0 0 0 0.16277,0.10617 4.3892663,4.3892663 0 0 0 0.16749,0.0967 4.3892663,4.3892663 0 0 0 0.16983,0.092 4.3892663,4.3892663 0 0 0 0.35384,0.16041 4.3892663,4.3892663 0 0 0 0.55199,0.17691 4.3892663,4.3892663 0 0 0 0.18872,0.0448 4.3892663,4.3892663 0 0 0 0.38215,0.0613 4.3892663,4.3892663 0 0 0 0.19107,0.0166 4.3892663,4.3892663 0 0 0 0.31374,0.0121 4.3892663,4.3892663 0 0 0 0.19342,-0.005 4.3892663,4.3892663 0 0 0 0.38451,-0.0331 4.3892663,4.3892663 0 0 0 0.38215,-0.0684 4.3892663,4.3892663 0 0 0 0.73598,-0.23589 4.3892663,4.3892663 0 0 0 0.17693,-0.0778 4.3892663,4.3892663 0 0 0 0.1722,-0.0873 4.3892663,4.3892663 0 0 0 0.33496,-0.19344 4.3892663,4.3892663 0 0 0 0.16041,-0.10845 4.3892663,4.3892663 0 0 0 0.15569,-0.11559 4.3892663,4.3892663 0 0 0 0.14862,-0.12266 4.3892663,4.3892663 0 0 0 0.14625,-0.12975 4.3892663,4.3892663 0 0 0 0.13917,-0.13446 4.3892663,4.3892663 0 0 0 0.13211,-0.14153 4.3892663,4.3892663 0 0 0 0.35855,-0.45528 4.3892663,4.3892663 0 0 0 0.52132,-1.03557 4.3892663,4.3892663 0 0 0 0.0613,-0.18399 4.3892663,4.3892663 0 0 0 0.12974,-0.56379 4.3892663,4.3892663 0 0 0 0.0448,-0.3845 4.3892663,4.3892663 0 0 0 0.01,-0.31373 c 0,-1.8978 2.4377,-5.53243 8.22795,-8.52989 5.79025,-2.99746 14.23931,-5.15899 23.57043,-5.15899 h 31.95876 v 7.69955 c 0,18.84399 -7.84696,42.45325 -20.47787,60.90048 -11.59468,16.93385 -26.94727,29.12592 -43.27927,31.03407 l 0.002,-13.3539 v -18.13544 a 4.3892663,4.3892663 0 0 0 -4.38996,-4.38761 4.3892663,4.3892663 0 0 0 -4.38997,4.38761 v 18.13544 22.52071 h 4.38997 c 22.09884,0 41.28967,-15.34846 54.91115,-35.24241 13.62148,-19.89395 22.01117,-44.64283 22.01117,-65.85895 V 410.0963 h -40.73634 c -10.65471,0 -20.29958,2.36002 -27.60656,6.14265 -1.49875,0.77587 -2.86604,1.66506 -4.19182,2.57831 v -22.51834 c 0,-7.61326 6.07795,-13.69122 13.69123,-13.69122 h 54.45588 a 4.3892663,4.3892663 0 0 0 4.38761,-4.38761 4.3892663,4.3892663 0 0 0 -4.38761,-4.38996 z"
       id="path3383-5-6" />
  </g>
</svg>
