<?xml version="1.0" encoding="UTF-8" standalone="no"?>
<!-- Created with Inkscape (http://www.inkscape.org/) -->

<svg
   width="1017.6042"
   height="1376.5653"
   viewBox="0 0 269.24111 364.21624"
   version="1.1"
   id="svg1"
   inkscape:version="1.4 (86a8ad7, 2024-10-11)"
   sodipodi:docname="Alphabet Leaf Tech Both Cases.svg"
   xmlns:inkscape="http://www.inkscape.org/namespaces/inkscape"
   xmlns:sodipodi="http://sodipodi.sourceforge.net/DTD/sodipodi-0.dtd"
   xmlns="http://www.w3.org/2000/svg"
   xmlns:svg="http://www.w3.org/2000/svg">
  <sodipodi:namedview
     id="namedview1"
     pagecolor="#ffffff"
     bordercolor="#000000"
     borderopacity="0.25"
     inkscape:showpageshadow="2"
     inkscape:pageopacity="0.0"
     inkscape:pagecheckerboard="0"
     inkscape:deskcolor="#d1d1d1"
     inkscape:document-units="px"
     inkscape:zoom="0.45012586"
     inkscape:cx="576.50542"
     inkscape:cy="712.02307"
     inkscape:window-width="1920"
     inkscape:window-height="1027"
     inkscape:window-x="-8"
     inkscape:window-y="-8"
     inkscape:window-maximized="1"
     inkscape:current-layer="layer1" />
  <defs
     id="defs1" />
  <g
     inkscape:label="Layer 1"
     inkscape:groupmode="layer"
     id="layer1"
     transform="translate(-2.3741276,-64.968622)">
    <text
       xml:space="preserve"
       style="font-size:41.5014px;line-height:1.1;font-family:'BlockTrain Hand';-inkscape-font-specification:'BlockTrain Hand';text-align:start;letter-spacing:1.32292px;writing-mode:lr-tb;direction:ltr;text-anchor:start;display:none;fill:#17a23e;fill-opacity:0.854902;stroke:#4d804f;stroke-width:1.16723;stroke-dasharray:none;stroke-opacity:1"
       x="137.9259"
       y="98.753357"
       id="text1"><tspan
         style="font-style:normal;font-variant:normal;font-weight:normal;font-stretch:normal;font-size:41.5014px;line-height:1.1;font-family:'Leaf Tech';-inkscape-font-specification:'Leaf Tech';text-align:center;letter-spacing:1.32292px;text-anchor:middle;fill:#17a23e;fill-opacity:0.854902;stroke:#4d804f;stroke-width:1.16723;stroke-dasharray:none;stroke-opacity:1"
         x="0"
         y="0"
         sodipodi:role="line"
         id="tspan5">AaÆæBbCcÇç</tspan><tspan
         style="font-style:normal;font-variant:normal;font-weight:normal;font-stretch:normal;font-size:41.5014px;line-height:1.1;font-family:'Leaf Tech';-inkscape-font-specification:'Leaf Tech';text-align:center;letter-spacing:1.32292px;text-anchor:middle;fill:#17a23e;fill-opacity:0.854902;stroke:#4d804f;stroke-width:1.16723;stroke-dasharray:none;stroke-opacity:1"
         x="0"
         y="0"
         sodipodi:role="line"
         id="tspan25">DdEeFfΦφÞþ</tspan><tspan
         style="font-style:normal;font-variant:normal;font-weight:normal;font-stretch:normal;font-size:41.5014px;line-height:1.1;font-family:'Leaf Tech';-inkscape-font-specification:'Leaf Tech';text-align:center;letter-spacing:1.32292px;text-anchor:middle;fill:#17a23e;fill-opacity:0.854902;stroke:#4d804f;stroke-width:1.16723;stroke-dasharray:none;stroke-opacity:1"
         x="0"
         y="0"
         sodipodi:role="line"
         id="tspan18">ÐðGgȜȝHhǶƕ</tspan><tspan
         style="font-style:normal;font-variant:normal;font-weight:normal;font-stretch:normal;font-size:41.5014px;line-height:1.1;font-family:'Leaf Tech';-inkscape-font-specification:'Leaf Tech';text-align:center;letter-spacing:1.32292px;text-anchor:middle;fill:#17a23e;fill-opacity:0.854902;stroke:#4d804f;stroke-width:1.16723;stroke-dasharray:none;stroke-opacity:1"
         x="0"
         y="0"
         sodipodi:role="line"
         id="tspan3">IiJjKkꞰʞLlMmNn</tspan><tspan
         style="font-style:normal;font-variant:normal;font-weight:normal;font-stretch:normal;font-size:41.5014px;line-height:1.1;font-family:'Leaf Tech';-inkscape-font-specification:'Leaf Tech';text-align:center;letter-spacing:1.32292px;text-anchor:middle;fill:#17a23e;fill-opacity:0.854902;stroke:#4d804f;stroke-width:1.16723;stroke-dasharray:none;stroke-opacity:1"
         x="0"
         y="0"
         sodipodi:role="line"
         id="tspan1">ИиŊŋOoŒœ</tspan><tspan
         style="font-style:normal;font-variant:normal;font-weight:normal;font-stretch:normal;font-size:41.5014px;line-height:1.1;font-family:'Leaf Tech';-inkscape-font-specification:'Leaf Tech';text-align:center;letter-spacing:1.32292px;text-anchor:middle;fill:#17a23e;fill-opacity:0.854902;stroke:#4d804f;stroke-width:1.16723;stroke-dasharray:none;stroke-opacity:1"
         x="0"
         y="0"
         sodipodi:role="line"
         id="tspan28">PpQqRrSsƩʃTt</tspan><tspan
         style="font-style:normal;font-variant:normal;font-weight:normal;font-stretch:normal;font-size:41.5014px;line-height:1.1;font-family:'Leaf Tech';-inkscape-font-specification:'Leaf Tech';text-align:center;letter-spacing:1.32292px;text-anchor:middle;fill:#17a23e;fill-opacity:0.854902;stroke:#4d804f;stroke-width:1.16723;stroke-dasharray:none;stroke-opacity:1"
         x="0"
         y="0"
         sodipodi:role="line"
         id="tspan29">ЧчUuȢȣVvWw</tspan><tspan
         style="font-style:normal;font-variant:normal;font-weight:normal;font-stretch:normal;font-size:41.5014px;line-height:1.1;font-family:'Leaf Tech';-inkscape-font-specification:'Leaf Tech';text-align:center;letter-spacing:1.32292px;text-anchor:middle;fill:#17a23e;fill-opacity:0.854902;stroke:#4d804f;stroke-width:1.16723;stroke-dasharray:none;stroke-opacity:1"
         x="0"
         y="0"
         sodipodi:role="line"
         id="tspan33">ꝎꝏXxYyZz</tspan></text>
    <g
       id="text27"
       style="font-size:41.5014px;line-height:1.1;font-family:'BlockTrain Hand';-inkscape-font-specification:'BlockTrain Hand';letter-spacing:1.32292px;fill:#17a23e;fill-opacity:0.854902;stroke:#4d804f;stroke-width:1.16723"
       aria-label="AaÆæBbCcÇç&#10;DdEeFfΦφÞþ&#10;ÐðGgȜȝHhǶƕ&#10;IiJjKkꞰʞLlMmNn&#10;ИиŊŋOoŒœ&#10;PpQqRrSsƩʃTt&#10;ЧчUuȢȣVvWw&#10;ꝎꝏXxYyZz">
      <path
         style="font-family:'Leaf Tech';-inkscape-font-specification:'Leaf Tech';text-align:center;text-anchor:middle"
         d="m 26.665571,67.461301 h 6.889232 v 6.889233 1.950566 c 0,2.739092 -2.199574,4.897165 -4.938666,4.897165 h -3.901132 c -1.950566,0 -3.693624,0.871529 -4.938666,2.158073 v -1.16204 -7.843764 c 0,-3.818129 3.071103,-6.889233 6.889232,-6.889233 z m 0,-1.867563 c -4.814162,0 -8.756795,3.901132 -8.756795,8.756796 v 7.843764 5.851698 9.79433 c 0,0.539518 0.415014,0.913031 0.91303,0.913031 0.539519,0 0.954533,-0.373513 0.954533,-0.913031 v -9.79433 c 0,-2.739093 2.199574,-4.938667 4.938666,-4.938667 h 3.901132 c 1.950566,0 3.693624,-0.830028 4.938666,-2.116571 v 1.20354 11.744897 c 0,1.660056 -1.286543,2.946599 -2.946599,2.946599 -0.539518,0 -0.954532,0.456515 -0.954532,0.954532 0,0.539518 0.415014,0.913031 0.954532,0.913031 2.65609,0 4.855664,-2.158073 4.855664,-4.814162 V 82.194298 76.3011 74.350534 65.593738 Z m 14.520357,21.373221 h 6.847731 c 3.818128,0 6.930733,3.071104 6.930733,6.889233 v 2.988101 h -6.847731 c -3.85963,0 -6.930733,-3.112605 -6.930733,-6.972236 z m -0.954533,-5.727193 c -0.539518,0 -0.954532,0.373513 -0.954532,0.913031 0,0.498017 0.415014,0.954532 0.954532,0.954532 h 9.794331 c 2.739092,0 4.938666,2.158073 4.938666,4.897165 v 0.456516 c -1.618554,-2.033569 -4.108638,-3.403115 -6.930733,-3.403115 h -8.756796 v 4.814162 c 0,4.897166 3.984135,8.8813 8.839798,8.8813 h 8.715294 V 88.004494 c 0,-3.776627 -3.071103,-6.764728 -6.806229,-6.764728 z m 53.241163,17.513591 h -15.43852 v -9.171809 h -10.37535 l -4.44065,9.171809 h -3.85963 l 14.068974,-29.632 h 20.045176 v 3.278611 H 81.769164 v 9.254812 h 10.914868 v 3.237109 H 81.769164 V 95.474746 H 93.472558 Z M 69.111237,86.261436 h 8.922801 V 72.441469 H 75.626956 Z M 122.31093,76.093593 q 2.69759,0 4.64815,1.245042 1.95057,1.245042 2.9881,3.486117 1.07904,2.241076 1.07904,5.229177 v 2.241075 h -14.23498 q 0.083,3.984135 1.70156,5.893199 1.66005,1.867563 4.73116,1.867563 2.07507,0 3.65212,-0.373513 1.57705,-0.415014 3.15411,-1.162039 v 3.195608 q -1.66006,0.747025 -3.27861,1.079036 -1.57706,0.373513 -3.65213,0.373513 -5.85169,0 -8.42478,-4.689658 -1.41105,2.158073 -3.32011,3.444616 -1.90907,1.245042 -5.10468,1.245042 -3.0296,0 -5.06317,-1.577053 -1.992063,-1.618555 -1.992063,-5.02167 0,-3.320112 2.490083,-5.104672 2.49008,-1.826061 7.63626,-1.992067 l 3.73512,-0.124504 v -1.411048 q 0,-2.697591 -1.28654,-3.776627 -1.24504,-1.079037 -3.36161,-1.079037 -1.66006,0 -3.27861,0.498017 -1.57706,0.498017 -2.9466,1.203541 l -1.12054,-2.739093 q 1.45255,-0.830028 3.52762,-1.369546 2.07507,-0.539518 4.10864,-0.539518 2.57308,0 4.23314,0.871529 1.70156,0.830028 2.57309,2.697591 1.07903,-1.701557 2.82209,-2.656089 1.74306,-0.954532 3.98414,-0.954532 z m -0.0415,2.9881 q -2.40709,0 -3.81813,1.660056 -1.36955,1.618555 -1.57706,4.689659 h 10.29235 q 0,-2.863597 -1.20354,-4.606656 -1.16204,-1.743059 -3.69362,-1.743059 z m -12.40892,8.922801 q -3.90113,0.166006 -5.39519,1.328045 -1.49405,1.162039 -1.49405,3.278611 0,1.867563 1.03754,2.739092 1.07904,0.87153 2.82209,0.87153 2.61459,0 4.35765,-1.535552 1.78456,-1.577053 1.78456,-4.814163 V 87.87999 Z m 27.75932,-6.806229 v -9.545322 c 0,-2.36558 1.90907,-4.233143 4.23315,-4.233143 h 9.54532 v 6.889232 c 0,3.818129 -3.0711,6.889233 -6.88923,6.889233 z m 0,1.867563 h 9.50382 c 2.36558,0 4.27465,1.909064 4.27465,4.274644 v 5.229176 c 0,2.36558 -1.90907,4.274645 -4.27465,4.274645 h -5.22917 c -2.36558,0 -4.27465,-1.909065 -4.27465,-4.274645 z m -1.90906,0 v 9.50382 c 0,3.403115 2.78059,6.183709 6.18371,6.183709 h 5.22917 c 3.40312,0 6.18371,-2.780594 6.18371,-6.183709 v -5.229176 c 0,-2.573087 -1.66005,-4.814162 -3.94263,-5.727193 2.36558,-1.577053 3.94263,-4.274644 3.94263,-7.304247 v -8.715294 h -11.45438 c -3.36162,0 -6.14221,2.697591 -6.14221,6.059205 v 9.545322 z m 24.23169,0 h 6.84773 c 3.85963,0 6.93074,3.112605 6.93074,6.930734 v 6.847731 h -6.84774 c -3.81812,0 -6.93073,-3.071104 -6.93073,-6.930734 z m -4.89716,-16.60056 c 0,0.249008 0.083,0.456515 0.249,0.622521 1.70156,1.909064 2.7391,4.44065 2.7391,7.221243 v 15.604527 c 0,4.855664 3.98413,8.839798 8.83979,8.839798 h 8.7568 v -8.756795 c 0,-4.855664 -3.98413,-8.798297 -8.8398,-8.798297 h -6.84773 v -6.889233 c 0,-3.27861 -1.24504,-6.22521 -3.23711,-8.507787 -0.166,-0.166005 -0.41501,-0.249008 -0.70552,-0.249008 -0.53952,0 -0.95453,0.373513 -0.95453,0.913031 z m 24.39769,-0.87153 v 24.402824 c 0,4.855663 3.94263,8.756795 8.79829,8.756795 h 7.84377 c 0.49801,0 0.95453,-0.373513 0.95453,-0.913031 0,-0.498017 -0.45652,-0.954532 -0.95453,-0.954532 h -7.84377 c -3.81813,0 -6.88923,-3.071104 -6.88923,-6.889232 V 67.461301 h 6.88923 c 3.81813,0 6.88923,3.071104 6.88923,6.889233 0,0.498017 0.41502,0.954532 0.95454,0.954532 0.49801,0 0.95453,-0.456515 0.95453,-0.954532 0,-4.855664 -3.94263,-8.756796 -8.7983,-8.756796 z m 16.84439,15.604527 v 8.715294 c 0,4.855664 3.98413,8.839798 8.83979,8.839798 h 7.80227 c 0.49801,0 0.91303,-0.415014 0.91303,-0.954532 0,-0.498017 -0.41502,-0.954532 -0.91303,-0.954532 h -7.80227 c -3.85963,0 -6.93073,-3.071104 -6.93073,-6.930734 v -6.847731 h 8.8398 c 2.73909,0 4.93867,2.199574 4.93867,4.938666 0,0.539519 0.41501,0.954533 0.95453,0.954533 0.49801,0 0.91303,-0.415014 0.91303,-0.954533 0,-3.735126 -3.0711,-6.806229 -6.80623,-6.806229 z M 227.5328,105.8916 c -1.57706,0 -2.9051,-1.32805 -2.9051,-2.9051 h 1.74306 c 0,0.58102 0.58102,1.16204 1.16204,1.16204 h 1.16204 v -1.16204 c 0,-0.58102 -0.58102,-1.16204 -1.16204,-1.16204 v 0 -1.74306 c 1.57705,0 2.9051,1.32805 2.9051,2.9051 v 2.9051 z m -9.87734,-40.297862 v 24.402824 c 0,4.357647 3.15411,7.926767 7.26275,8.632291 -0.16601,0.415014 -0.29051,0.830028 -0.29051,1.286543 v 1.909064 h 2.9051 v -1.74306 h -1.16204 v -0.166004 c 0,-0.539518 0.49802,-1.079036 1.07903,-1.162039 h 6.84774 c 0.49801,0 0.95453,-0.373513 0.95453,-0.913031 0,-0.498017 -0.45652,-0.954532 -0.95453,-0.954532 h -7.84377 c -3.81813,0 -6.88923,-3.071104 -6.88923,-6.889232 V 67.461301 h 6.88923 c 3.81813,0 6.88923,3.071104 6.88923,6.889233 0,0.498017 0.41502,0.954532 0.95454,0.954532 0.49801,0 0.95453,-0.456515 0.95453,-0.954532 0,-4.855664 -3.94264,-8.756796 -8.7983,-8.756796 z m 9.87734,34.487662 z m 21.32656,5.8102 c -1.57706,0 -2.9051,-1.32805 -2.9051,-2.9051 h 1.74306 c 0,0.58102 0.58102,1.16204 1.16204,1.16204 h 1.16204 v -1.16204 c 0,-0.58102 -0.58102,-1.16204 -1.16204,-1.16204 h 0.0415 v -1.74306 c 1.53555,0 2.86359,1.32805 2.86359,2.9051 v 2.9051 z m -9.79433,-24.693335 v 8.715294 c 0,4.316145 3.1126,7.968269 7.22124,8.715294 -0.20751,0.373512 -0.29051,0.830028 -0.29051,1.286543 v 1.909064 h 2.8636 v -1.74306 h -1.12054 v -0.166004 c 0,-0.539518 0.49801,-1.079036 1.03753,-1.162039 h 6.93074 c 0.49801,0 0.91303,-0.415014 0.91303,-0.954532 0,-0.498017 -0.41502,-0.954532 -0.91303,-0.954532 h -7.80227 c -3.85963,0 -6.93073,-3.071104 -6.93073,-6.930734 v -6.847731 h 8.8398 c 2.73909,0 4.93866,2.199574 4.93866,4.938666 0,0.539519 0.41502,0.954533 0.95454,0.954533 0.49801,0 0.91303,-0.415014 0.91303,-0.954533 0,-3.735126 -3.07111,-6.806229 -6.80623,-6.806229 z m 9.83583,18.883135 h -0.0415 z"
         id="path27" />
      <path
         style="font-family:'Leaf Tech';-inkscape-font-specification:'Leaf Tech';text-align:center;text-anchor:middle"
         d="m 13.800135,113.74054 h 6.889232 c 3.818129,0 6.889232,3.07111 6.889232,6.88924 v 15.64602 c 0,3.81813 -3.071103,6.88924 -6.889232,6.88924 h -6.889232 z m -1.867563,-1.86756 v 0.91303 32.24659 h 8.756795 c 4.855664,0 8.798297,-3.90113 8.798297,-8.7568 v -15.64602 c 0,-4.85567 -3.942633,-8.7568 -8.798297,-8.7568 z m 30.124883,-0.0415 c -0.539518,0 -0.954532,0.37351 -0.954532,0.91303 0,0.49802 0.415014,0.95453 0.954532,0.95453 3.818129,0 6.930734,3.07111 6.930734,6.88923 v 10.29235 c -1.618555,-2.07507 -4.108639,-3.40311 -6.930734,-3.40311 h -8.756796 v 8.71529 c 0,4.85566 3.984135,8.8398 8.839799,8.8398 h 8.715294 v -24.44433 c 0,-4.85566 -3.942633,-8.75679 -8.798297,-8.75679 z m -6.847731,17.51359 h 6.847731 c 3.818129,0 6.930734,3.1126 6.930734,6.93073 v 6.84773 h -6.847731 c -3.859631,0 -6.930734,-3.0711 -6.930734,-6.93073 z m 31.82644,-0.87153 v -0.0415 c 0,-0.53952 -0.415014,-0.95453 -0.954532,-0.95453 h -4.565154 c -2.739092,0 -4.938666,-2.15808 -4.938666,-4.89717 v -8.8398 h 10.831865 c 1.618555,0 2.946599,1.28655 2.946599,2.9466 0,0.53952 0.415014,0.95453 0.954533,0.95453 0.498016,0 0.954532,-0.41501 0.954532,-0.95453 0,-2.65609 -2.199574,-4.81416 -4.855664,-4.81416 h -12.74093 v 10.70736 c 0,2.49009 1.411048,4.68966 3.444616,5.8932 -2.033568,1.16204 -3.444616,3.36161 -3.444616,5.8517 v 10.70736 h 12.74093 c 2.65609,0 4.855664,-2.15807 4.855664,-4.81416 0,-0.53952 -0.456516,-0.95454 -0.954532,-0.95454 -0.539519,0 -0.954533,0.41502 -0.954533,0.95454 0,1.66005 -1.328044,2.9466 -2.946599,2.9466 H 56.577812 v -8.8398 c 0,-2.73909 2.199574,-4.93867 4.938666,-4.93867 h 4.565154 c 0.539518,0 0.954532,-0.37351 0.954532,-0.91303 z m 4.47697,-0.95453 v 8.67379 c 0,4.85566 3.984135,8.8398 8.839798,8.8398 h 7.760762 c 0.539518,0 0.954532,-0.41502 0.954532,-0.95453 0,-0.49802 -0.415014,-0.95454 -0.954532,-0.95454 h -7.760762 c -3.486117,0 -6.349714,-2.53158 -6.847731,-5.89319 1.037535,0.95453 2.324079,1.66005 4.191642,1.66005 h 11.371383 v -2.61459 c 0,-4.85566 -3.942633,-8.75679 -8.798296,-8.75679 z m 1.909065,1.86756 h 6.847731 c 3.818128,0 6.889232,3.0711 6.889232,6.88923 v 0.70553 h -9.462319 c -2.407081,0 -4.274644,-1.90907 -4.274644,-4.27465 z m 25.352226,-17.51359 v 15.60453 h -4.938667 c -0.539518,0 -0.954532,0.45651 -0.954532,0.99603 0,0.49802 0.415014,0.91303 0.954532,0.91303 h 4.938667 V 142.169 c 0,2.73909 -2.199575,4.93867 -4.938667,4.93867 -0.539518,0 -0.954532,0.41501 -0.954532,0.91303 0,0.53952 0.415014,0.95453 0.954532,0.95453 3.776627,0 6.847732,-3.0711 6.847732,-6.80623 v -12.78243 h 14.733 c 0.49801,0 0.91303,-0.41501 0.91303,-0.91303 0,-0.53952 -0.41502,-0.99603 -0.91303,-0.99603 h -14.733 v -13.73697 h 6.84773 c 3.81813,0 6.93073,3.07111 6.93073,6.88924 0,0.53951 0.41502,0.95453 0.95454,0.95453 0.49801,0 0.91303,-0.41502 0.91303,-0.95453 0,-4.85567 -3.94264,-8.7568 -8.7983,-8.7568 z m 22.322625,37.97378 c 0.24901,0 0.45651,-0.083 0.62252,-0.24901 2.69759,-2.40708 4.23314,-5.85169 4.23314,-9.42081 v -10.79037 h 9.46232 c 0.53952,0 0.95453,-0.41501 0.95453,-0.95453 0,-0.49802 -0.41501,-0.95453 -0.95453,-0.95453 h -9.42082 c 0.45652,-4.81417 4.48216,-8.54929 9.42082,-8.54929 h 5.22918 c 0.53952,0 0.95453,-0.41502 0.95453,-0.91303 0,-0.53952 -0.41501,-0.95453 -0.95453,-0.95453 h -5.22918 c -5.9347,0 -10.83186,4.56515 -11.32988,10.41685 h -2.9881 c -0.53952,0 -0.95453,0.45651 -0.95453,0.95453 0,0.53952 0.41501,0.95453 0.95453,0.95453 h 2.9466 v 10.79037 c 0,3.0296 -1.28654,5.9762 -3.56912,8.00977 -0.20751,0.166 -0.33201,0.41501 -0.33201,0.70552 0,0.53952 0.41501,0.95453 0.95453,0.95453 z m 38.71566,-4.81416 v -3.73513 q -4.10863,-0.083 -6.76472,-1.16204 -2.61459,-1.07903 -4.10864,-2.78059 -1.45255,-1.74306 -2.07507,-3.73513 -0.58102,-2.03356 -0.58102,-3.94263 0,-2.19957 0.66402,-4.23314 0.66402,-2.03357 2.19957,-3.61062 1.53556,-1.61856 4.15014,-2.57309 2.61459,-0.99603 6.51572,-1.03754 v -2.82209 h 3.69363 v 2.82209 q 3.94263,0.0415 6.55722,0.99604 2.61459,0.95453 4.10864,2.53158 1.53555,1.57706 2.19957,3.65213 0.66402,2.03357 0.66402,4.27464 0,1.99207 -0.62252,4.02564 -0.62252,2.03357 -2.15807,3.73512 -1.49405,1.66006 -4.15014,2.7391 -2.61459,1.03753 -6.59872,1.12053 v 3.73513 z m 0,-6.80623 V 121.3768 q -3.73512,0.083 -5.89319,1.20354 -2.11658,1.07904 -2.98811,2.9051 -0.87153,1.82606 -0.87153,4.15014 0,2.44858 0.95454,4.35765 0.99603,1.90906 3.1126,3.0296 2.15807,1.07904 5.68569,1.20354 z m 3.69363,0 q 3.61062,-0.1245 5.72719,-1.24504 2.15807,-1.16204 3.07111,-3.07111 0.95453,-1.90906 0.95453,-4.27464 0,-2.36558 -0.87153,-4.19164 -0.87153,-1.82606 -2.9881,-2.9051 -2.11657,-1.07904 -5.8932,-1.16204 z m 30.24942,16.76656 v -9.62832 q -3.27861,-0.29051 -5.7687,-1.70156 -2.49008,-1.45255 -3.85963,-3.90113 -1.36954,-2.49008 -1.36954,-5.8517 0,-5.06317 2.86359,-8.05127 2.8636,-2.9881 8.13428,-3.40311 v -8.96431 h 3.56912 v 8.96431 q 3.32011,0.29051 5.76869,1.74306 2.49009,1.45255 3.85963,3.90113 1.36955,2.44858 1.36955,5.81019 0,5.02167 -2.9466,8.00977 -2.9051,2.9881 -8.05127,3.44462 v 9.62832 z m 0,-12.53342 v -17.05707 q -3.81813,0.37351 -5.51969,2.53158 -1.66005,2.15807 -1.66005,5.9762 0,3.81813 1.70155,6.01771 1.70156,2.15807 5.47819,2.53158 z m 3.56912,0 q 3.73512,-0.41501 5.47818,-2.57308 1.74306,-2.19958 1.74306,-5.97621 0,-7.67776 -7.22124,-8.46628 z m 37.55366,-13.28045 q 0,2.49009 -1.07904,4.64816 -1.07903,2.11657 -3.69362,3.44462 -2.57309,1.32804 -7.09674,1.32804 h -3.36161 v 6.43272 h -3.73513 v -29.632 h 3.73513 v 5.14617 h 3.98413 q 6.0177,0 8.63229,2.28258 2.61459,2.28258 2.61459,6.34971 z m -12.24291,6.26672 q 4.35764,0 6.34971,-1.36955 2.03357,-1.41105 2.03357,-4.68966 0,-2.8636 -1.82606,-4.23314 -1.78456,-1.41105 -5.8517,-1.41105 h -3.69362 v 11.7034 z m 38.92316,-1.57706 q 0,5.68569 -2.53158,8.63229 -2.49009,2.9466 -6.59873,2.9466 -2.61458,0 -4.27464,-0.95453 -1.66006,-0.95453 -2.65609,-2.28258 h -0.24901 q 0.0415,0.29051 0.083,0.95454 0.083,0.66402 0.12451,1.36954 0.0415,0.70553 0.0415,1.16204 v 9.29631 h -3.65212 v -41.5014 h 3.65212 v 9.29632 q 0,0.58102 -0.0415,1.53555 -0.0415,0.91303 -0.083,1.45255 h 0.166 q 0.99603,-1.41105 2.61459,-2.40708 1.61855,-0.99604 4.27464,-0.99604 4.10864,0 6.59873,2.9051 2.53158,2.9051 2.53158,8.59079 z m -3.77663,-0.0415 q 0,-4.19164 -1.45254,-6.26671 -1.45255,-2.11657 -4.52366,-2.11657 -3.40311,0 -4.81416,1.90906 -1.41105,1.90907 -1.49405,5.7272 v 0.78852 q 0,4.10864 1.32804,6.34972 1.36955,2.19957 5.02167,2.19957 3.07111,0 4.48216,-2.19957 1.45254,-2.24108 1.45254,-6.39122 z"
         id="path28" />
      <path
         style="font-family:'Leaf Tech';-inkscape-font-specification:'Leaf Tech';text-align:center;text-anchor:middle"
         d="m 15.08666,161.67984 q 4.44065,0 7.71926,1.66006 3.278611,1.66005 5.063171,4.89716 1.826062,3.19561 1.826062,7.96827 0,7.51175 -4.108639,11.32988 -4.067137,3.77663 -11.412885,3.77663 H 6.2468615 V 178.2804 H 3.1757579 v -3.23711 h 3.0711036 v -13.36345 z m -0.539518,3.19561 H 9.9819875 v 10.16784 h 7.3872495 v 3.23711 H 9.9819875 v 9.83583 h 3.7351265 q 12.035406,0 12.035406,-11.78639 0,-5.9347 -2.9466,-8.6738 -2.946599,-2.78059 -8.258778,-2.78059 z m 27.9668,-5.31218 q 1.328044,0.62252 2.656089,1.36955 1.369546,0.74702 2.573087,1.61855 l 4.772661,-2.78059 1.577053,2.24107 -4.108638,2.36558 q 2.822095,2.65609 4.606655,6.55722 1.826062,3.90114 1.826062,8.96431 0,5.89319 -2.780594,8.8813 -2.780594,2.9466 -7.594756,2.9466 -2.988101,0 -5.31218,-1.20355 -2.282577,-1.24504 -3.610621,-3.48611 -1.286544,-2.28258 -1.286544,-5.39519 0,-4.64815 2.614588,-7.30424 2.65609,-2.65609 7.138241,-2.65609 2.199574,0 3.818129,0.58102 1.660056,0.58102 2.65609,1.82606 l 0.166005,-0.083 q -0.664022,-2.36558 -2.033568,-4.35765 -1.369547,-1.99207 -3.112605,-3.56912 l -5.395182,3.1126 -1.577054,-2.28257 4.648157,-2.65609 q -0.871529,-0.58102 -1.826061,-1.12054 -0.954533,-0.58102 -1.909065,-1.07904 z m 3.610621,15.06501 q -3.486117,0 -5.06317,1.86756 -1.535552,1.82606 -1.535552,5.27068 0,3.0296 1.577053,5.02167 1.577053,1.95056 5.021669,1.95056 3.444617,0 5.02167,-1.99206 1.577053,-2.03357 1.577053,-5.8517 0,-2.57309 -1.618555,-4.39915 -1.618554,-1.86756 -4.980168,-1.86756 z m 23.941164,-16.47606 c -4.855664,0 -8.839798,3.94264 -8.839798,8.7983 v 24.36132 h 8.756795 c 2.822095,0 5.312179,-1.32804 6.930734,-3.36161 v 2.44858 c 0,2.73909 -2.199574,4.93867 -4.938667,4.93867 h -9.79433 c -0.498017,0 -0.954532,0.41501 -0.954532,0.91303 0,0.53952 0.456515,0.95453 0.954532,0.95453 h 9.79433 c 3.776628,0 6.847731,-3.0711 6.847731,-6.80623 v -9.79433 -0.083 -6.76473 h -6.847731 c -2.697591,0 -4.855663,2.19957 -4.855663,4.89716 0,0.49802 0.415014,0.95454 0.954532,0.95454 0.498017,0 0.954532,-0.45652 0.954532,-0.95454 0,-1.66005 1.286543,-2.9881 2.946599,-2.9881 h 4.938667 v 6.88924 c 0,3.81812 -3.071104,6.88923 -6.930734,6.88923 h -6.847731 v -22.49376 c 0,-3.85963 3.112605,-6.93073 6.930734,-6.93073 h 6.847731 v 2.9881 c 0,1.61855 -1.328045,2.9466 -2.946599,2.9466 -0.539519,0 -0.954533,0.41501 -0.954533,0.95453 0,0.49801 0.415014,0.95453 0.954533,0.95453 2.656089,0 4.855663,-2.19957 4.855663,-4.85566 v -4.85567 z m 14.478835,17.47209 h 6.847731 c 3.818129,0 6.930734,3.11261 6.930734,6.93074 v 6.84773 h -6.847731 c -3.85963,0 -6.930734,-3.07111 -6.930734,-6.93074 z m -1.909064,19.00764 c 0,0.37352 0.207507,0.66403 0.456515,0.83003 1.867563,1.07904 4.067137,1.70156 6.391216,1.70156 h 10.707361 v -14.60849 c 0,-4.85567 -3.942633,-8.7983 -8.798297,-8.7983 h -8.756795 v 8.71529 c 0,4.85567 3.984134,8.8398 8.839798,8.8398 h 6.847731 v 3.94263 h -8.839798 c -1.992068,0 -3.818129,-0.49801 -5.436684,-1.41104 -0.124504,-0.083 -0.29051,-0.16601 -0.456515,-0.16601 -0.498017,0 -0.954532,0.41501 -0.954532,0.95453 z m 21.741602,0.58102 q 4.68966,-1.20354 7.80226,-2.44858 3.11261,-1.24504 4.89717,-2.61459 1.82606,-1.36954 2.61458,-2.9466 0.78853,-1.57705 0.78853,-3.44461 0,-2.49009 -1.28654,-3.94264 -1.24504,-1.45255 -3.44462,-2.53158 -1.45255,0.53952 -3.0296,0.99603 -1.57705,0.41502 -3.23711,0.83003 l -0.70552,-2.9051 q 3.94263,-1.03753 6.39121,-1.99207 2.44858,-0.95453 3.56912,-2.19957 1.16204,-1.28654 1.16204,-3.15411 0,-2.11657 -1.45255,-3.32011 -1.45255,-1.20354 -4.02563,-1.20354 -2.44859,0 -4.44065,0.66402 -1.99207,0.62252 -3.85963,1.86757 l -1.78456,-2.53159 q 2.36558,-1.66005 4.85566,-2.36558 2.53159,-0.70552 5.27068,-0.70552 2.36558,0 4.48215,0.74702 2.11657,0.70553 3.44462,2.32408 1.36954,1.61856 1.36954,4.39915 0,2.40708 -1.32804,4.15014 -1.28655,1.70156 -3.44462,2.9051 1.41105,0.66402 2.61459,1.70155 1.24504,1.03754 1.99207,2.57309 0.78852,1.49405 0.78852,3.69363 0,3.85963 -2.07507,6.59872 -2.03357,2.69759 -6.47422,4.68966 -4.39914,1.99206 -11.45438,3.73512 z m 24.81274,2.7806 q 6.68173,-1.41105 10.08484,-3.69363 3.44462,-2.24107 3.44462,-5.76869 0,-2.11657 -0.95453,-3.32011 -0.91303,-1.24505 -2.57309,-2.07507 -1.20354,0.49801 -2.61459,0.91303 -1.36955,0.41501 -2.9051,0.78852 l -0.70552,-2.73909 q 3.65212,-0.95453 5.60269,-1.90906 1.99207,-0.99604 2.73909,-2.11658 0.74703,-1.12053 0.74703,-2.53158 0,-1.90907 -1.20354,-2.9051 -1.16204,-1.03753 -3.23711,-1.03753 -1.82607,0 -3.44462,0.41501 -1.57705,0.41501 -3.11261,1.24504 l -1.24504,-2.65609 q 1.90907,-1.07903 3.85963,-1.49405 1.95057,-0.45651 3.98414,-0.45651 2.28257,0 4.10864,0.70552 1.82606,0.66402 2.90509,2.19957 1.12054,1.49406 1.12054,3.98414 0,1.95056 -0.99603,3.48612 -0.95453,1.49405 -2.73909,2.61458 1.82606,0.87153 3.1126,2.49009 1.32805,1.57705 1.32805,4.39915 0,3.61062 -2.15808,6.0592 -2.15807,2.44858 -6.0592,4.02564 -3.85963,1.57705 -9.08881,2.65609 z m 26.76329,-39.84135 c -2.65609,0 -4.85566,2.15808 -4.85566,4.81416 v 3.94264 7.84376 5.8517 9.79433 c 0,0.53952 0.45651,0.91303 0.95453,0.91303 0.53952,0 0.95453,-0.37351 0.95453,-0.91303 v -9.79433 c 0,-2.73909 2.19957,-4.93867 4.93867,-4.93867 h 3.90113 c 1.95056,0 3.69362,-0.83002 4.93866,-2.11657 v 1.20354 11.7449 c 0,1.66005 -1.32804,2.9466 -2.9466,2.9466 -0.53951,0 -0.95453,0.45651 -0.95453,0.95453 0,0.53952 0.41502,0.91303 0.95453,0.91303 2.65609,0 4.85567,-2.15807 4.85567,-4.81416 v -11.7449 -5.8932 -1.95056 -7.84377 c 0,-0.53951 -0.45652,-0.91303 -0.95453,-0.91303 -0.53952,0 -0.95454,0.37352 -0.95454,0.91303 v 7.84377 1.95056 c 0,2.7391 -2.19957,4.89717 -4.93866,4.89717 h -3.90113 c -1.95057,0 -3.69363,0.87153 -4.93867,2.15807 v -1.16204 -7.84376 -3.94264 c 0,-1.66005 1.32804,-2.94659 2.9466,-2.94659 0.53952,0 0.95453,-0.45652 0.95453,-0.95454 0,-0.53951 -0.41501,-0.91303 -0.95453,-0.91303 z m 14.47887,0.87153 c 0,0.24901 0.083,0.45652 0.24901,0.62252 1.70155,1.90907 2.73909,4.44065 2.73909,7.22125 v 15.60452 c 0,4.85567 3.98413,8.8398 8.8398,8.8398 0.53952,0 0.95453,-0.41501 0.95453,-0.95453 0,-0.49802 -0.41501,-0.95453 -0.95453,-0.95453 -3.81813,0 -6.93074,-3.07111 -6.93074,-6.93074 v -6.84773 h 6.84773 c 3.85964,0 6.93074,3.11261 6.93074,6.93074 v 7.80226 c 0,0.53952 0.41501,0.95453 0.95453,0.95453 0.49802,0 0.95453,-0.41501 0.95453,-0.95453 v -7.80226 c 0,-4.85567 -3.98413,-8.7983 -8.8398,-8.7983 h -6.84773 v -6.88923 c 0,-3.27861 -1.24504,-6.22521 -3.23711,-8.50779 -0.166,-0.16601 -0.41501,-0.24901 -0.70552,-0.24901 -0.53952,0 -0.95453,0.37351 -0.95453,0.91303 z m 27.17828,32.28809 v -29.632 h 3.73513 v 12.53342 h 12.28441 v -12.53342 h 3.73513 v 22.82577 q 0,1.86756 0.95453,2.9051 0.99603,1.03753 2.9051,1.03753 1.99207,0 2.9051,-1.12053 0.91303,-1.12054 0.91303,-2.8636 v -15.39702 h 3.73512 v 15.39702 q 0,3.0711 -1.86756,5.14617 -1.86756,2.07507 -5.8102,2.07507 -3.65212,0 -5.56118,-1.99206 -1.90907,-1.99207 -1.90907,-5.27068 v -6.93074 h -12.28441 v 13.81997 z m 62.74498,0.41502 q -4.39915,0 -6.64022,-1.90907 -2.24108,-1.95057 -2.24108,-6.22521 v -6.51572 q 0,-2.69759 -1.12054,-4.02563 -1.07903,-1.32805 -3.40311,-1.32805 -3.40312,0 -4.68966,2.11657 -1.24504,2.07507 -1.24504,5.9762 v 11.49589 h -3.65212 v -31.54106 h 3.65212 v 9.25481 q 0,1.66006 -0.20751,3.1126 h 0.24901 q 0.99603,-1.70155 2.73909,-2.57308 1.74306,-0.87153 3.73513,-0.87153 3.77663,0 5.68569,1.95056 1.90907,1.90907 1.90907,6.18371 v 6.51572 q 0,5.35368 5.22917,5.35368 2.69759,0 3.94263,-1.45255 1.28655,-1.45255 1.28655,-4.73116 v -13.44645 h 3.65212 v 13.57096 q 0,4.98017 -2.24107,7.05524 -2.19958,2.03357 -6.64023,2.03357 z"
         id="path29" />
      <path
         style="font-family:'Leaf Tech';-inkscape-font-specification:'Leaf Tech';text-align:center;text-anchor:middle"
         d="m 7.8134064,204.38996 c -0.5395182,0 -0.9545322,0.37352 -0.9545322,0.95454 0,1.61855 -1.3280448,2.94659 -2.9465994,2.94659 -0.5395182,0 -0.9545322,0.41502 -0.9545322,0.95454 0,0.53952 0.415014,0.95453 0.9545322,0.95453 1.1205378,0 2.1165714,-0.41501 2.9465994,-1.03754 v 23.6143 c 0,1.66006 -1.3280448,2.9466 -2.9465994,2.9466 -0.5395182,0 -0.9545322,0.45652 -0.9545322,0.95453 0,0.53952 0.415014,0.91303 0.9545322,0.91303 2.6560896,0 4.8556638,-2.15807 4.8556638,-4.81416 V 205.3445 205.303 c 0,-0.49801 -0.415014,-0.91303 -0.9545322,-0.91303 z m 10.8267726,32.24659 c 0,-0.24901 -0.083,-0.45651 -0.249008,-0.62252 -1.701557,-1.90906 -2.780594,-4.44065 -2.780594,-7.22124 v -7.84377 c 0,-0.49802 -0.415014,-0.91303 -0.913031,-0.91303 -0.539518,0 -0.954532,0.41501 -0.954532,0.91303 v 7.84377 c 0,3.27861 1.203541,6.22521 3.237109,8.46628 0.166006,0.20751 0.415014,0.33201 0.705524,0.33201 0.539518,0 0.954532,-0.41501 0.954532,-0.95453 z m -5.810196,-21.16571 v 1.86756 h 1.826062 c 1.037535,0 1.867563,-0.83003 1.867563,-1.86756 v -1.82606 h -1.826062 c -1.079036,0 -1.867563,0.83002 -1.867563,1.82606 z m 10.577766,-11.08088 c -0.539519,0 -0.954533,0.41502 -0.954533,0.95454 0,0.49801 0.415014,0.95453 0.954533,0.95453 h 6.889232 v 22.53526 c 0,3.81813 -3.071104,6.88923 -6.889232,6.88923 -0.539519,0 -0.954533,0.45652 -0.954533,0.95453 0,0.53952 0.415014,0.91303 0.954533,0.91303 4.855663,0 8.798296,-3.90113 8.798296,-8.75679 v -22.53526 h 5.934701 v 0.99603 c 0,0.58102 -0.456516,0.99603 -0.996034,0.99603 -0.539518,0 -0.954532,0.45652 -0.954532,0.95454 0,0.53952 0.415014,0.95453 0.954532,0.95453 1.577053,0 2.905098,-1.28654 2.905098,-2.9051 v -2.9051 z m 12.279287,39.05282 c 0.207507,0 0.373512,-0.0415 0.539518,-0.16601 3.403115,-2.24107 5.64419,-6.1422 5.64419,-10.58285 v -11.7449 c 0,-0.49802 -0.415014,-0.91303 -0.91303,-0.91303 -0.539519,0 -0.954533,0.41501 -0.954533,0.91303 v 11.7449 c 0,3.77663 -1.950565,7.09674 -4.855663,9.0058 -0.249009,0.16601 -0.415014,0.45652 -0.415014,0.78853 0,0.58102 0.456515,0.95453 0.954532,0.95453 z m 3.444616,-29.00948 v 1.86756 h 1.826062 c 1.037535,0 1.867563,-0.83002 1.867563,-1.86756 v -1.82606 h -1.826062 c -1.079036,0 -1.867563,0.83003 -1.867563,1.82606 z m 8.461125,23.15778 c 0.539518,0 0.954532,-0.37351 0.954532,-0.91303 v -11.8694 c 0,-1.57705 1.328045,-2.86359 2.946599,-2.86359 h 1.328045 c 1.203541,0 2.324078,-0.24901 3.361613,-0.70553 l 0.373513,0.41502 c 1.743059,1.90906 2.780594,4.44065 2.780594,7.17974 0,3.27861 1.20354,6.22521 3.237109,8.46628 0.166006,0.20751 0.415014,0.29051 0.705524,0.29051 0.539518,0 0.954532,-0.37351 0.954532,-0.91303 0,-0.24901 -0.124504,-0.45651 -0.249008,-0.62252 -1.743059,-1.90906 -2.780594,-4.44065 -2.780594,-7.22124 0,-3.32011 -1.286544,-6.34972 -3.361614,-8.63229 0.954533,-0.74703 1.784561,-1.66006 2.448583,-2.69759 1.203541,-1.95057 1.867563,-4.31615 1.867563,-6.68173 0,-0.74703 -0.083,-1.53555 -0.207507,-2.28258 l -0.705524,-3.40311 c -0.083,-0.41502 -0.456515,-0.74703 -0.913031,-0.74703 -0.581019,0 -0.954532,0.45652 -0.954532,0.95454 v 0.166 l 0.705524,3.40312 c 0.124504,0.66402 0.207507,1.32804 0.207507,1.95056 0,4.68966 -3.112605,9.17181 -7.470252,9.17181 h -1.328045 c -1.120538,0 -2.116571,0.41501 -2.946599,1.03754 V 205.3445 c 0,-0.53952 -0.415014,-0.95454 -0.954532,-0.95454 -0.539519,0 -0.954533,0.41502 -0.954533,0.95454 v 31.33355 c 0,0.53952 0.415014,0.91303 0.954533,0.91303 z m 21.409568,-25.39885 c -0.539518,0 -0.954532,0.41501 -0.954532,0.95453 v 15.60452 c 0,4.85567 3.984135,8.8398 8.839798,8.8398 0.539519,0 0.954533,-0.41501 0.954533,-0.95453 0,-0.49802 -0.415014,-0.95453 -0.954533,-0.95453 -3.85963,0 -6.930733,-3.0711 -6.930733,-6.93074 v -6.84773 h 6.806229 c 3.85963,0 6.972235,3.11261 6.972235,6.97224 v 7.76076 c 0,0.53952 0.415014,0.95453 0.954533,0.95453 0.498016,0 0.91303,-0.41501 0.91303,-0.95453 v -7.76076 c 0,-3.56912 -2.116571,-6.64022 -5.187675,-8.05127 1.909065,-1.20354 3.195608,-3.32011 3.195608,-5.7272 0,-0.53951 -0.415014,-0.95453 -0.954532,-0.95453 -0.539518,0 -0.954532,0.41502 -0.954532,0.95453 0,2.7391 -2.199574,4.93867 -4.938667,4.93867 h -6.806229 v -6.88923 c 0,-0.53952 -0.456516,-0.95453 -0.954533,-0.95453 z m 19.168514,-4.23315 h 4.399148 l 10.499853,14.15198 3.0296,-2.65609 v -11.49589 h 3.73513 v 29.632 h -3.73513 v -14.60849 q -1.24504,1.41105 -2.53158,2.8221 -1.28655,1.36954 -2.57309,2.82209 l -8.009769,8.9643 h -4.357647 l 11.744896,-12.90693 z m 42.035771,22.45226 q 0,-0.66402 0.0415,-1.74306 0.083,-1.07903 0.1245,-1.86756 h -0.166 q -0.24901,0.33201 -0.74703,0.95453 -0.45651,0.62252 -0.99603,1.28654 -0.53952,0.62253 -0.91303,1.03754 l -7.09674,7.51175 h -4.27465 l 9.00581,-9.50382 -9.62833,-12.74093 h 4.39915 l 7.71926,10.37535 2.53159,-2.19957 v -8.17578 h 3.61062 v 31.54107 h -3.61062 z m 15.88993,-26.02138 c -3.40312,0 -6.18371,2.7806 -6.18371,6.18371 v 27.01741 h 11.41288 c 3.40312,0 6.18371,-2.73909 6.18371,-6.1422 0,-0.49802 -0.45651,-0.95454 -0.95453,-0.95454 -0.53952,0 -0.95453,0.45652 -0.95453,0.95454 0,2.40708 -1.90907,4.27464 -4.27465,4.27464 h -9.50382 v -25.14985 c 0,-2.36558 1.90907,-4.27464 4.27465,-4.27464 0.53952,0 0.95453,-0.45652 0.95453,-0.95453 0,-0.53952 -0.41501,-0.95454 -0.95453,-0.95454 z m 11.90575,0.95454 c 0,0.249 0.083,0.45651 0.24901,0.62252 1.70156,1.90906 2.73909,4.44065 2.73909,7.17974 v 7.84376 7.84377 c 0,2.69759 0.83003,5.18767 2.28258,7.22124 0.29051,0.45652 0.58102,0.83003 0.95453,1.20354 0.16601,0.20751 0.41502,0.33201 0.70553,0.33201 0.53951,0 0.95453,-0.41501 0.95453,-0.95453 0,-0.24901 -0.083,-0.45651 -0.24901,-0.62252 -1.70156,-1.90906 -2.73909,-4.44065 -2.73909,-7.17974 v -7.84377 -7.84376 c 0,-3.23711 -1.24505,-6.18371 -3.23711,-8.42479 -0.20751,-0.2075 -0.45652,-0.33201 -0.70553,-0.33201 -0.53951,0 -0.95453,0.41502 -0.95453,0.95454 z m 11.69827,-0.95454 v 27.05892 c 0,3.40311 2.7806,6.1422 6.18371,6.1422 0.53952,0 0.95453,-0.37351 0.95453,-0.91303 0,-0.49801 -0.41501,-0.95453 -0.95453,-0.95453 -2.36558,0 -4.27464,-1.86756 -4.27464,-4.27464 v -25.14985 h 6.88923 c 3.81813,0 6.88923,3.0711 6.88923,6.88923 v 18.26062 c 0,0.53951 0.41502,0.95453 0.95454,0.95453 0.49801,0 0.95453,-0.41502 0.95453,-0.95453 v -25.14985 h 6.88923 c 3.81813,0 6.88923,3.0711 6.88923,6.88923 v 23.48979 c 0,0.53952 0.41502,0.91303 0.95453,0.91303 0.49802,0 0.91304,-0.37351 0.91304,-0.91303 v -23.48979 c 0,-4.85566 -3.94264,-8.7983 -8.7568,-8.7983 h -8.7983 v 3.40312 c -1.61855,-2.07507 -4.06713,-3.40312 -6.88923,-3.40312 z m 37.05562,15.64603 v 12.69943 c 0,2.65609 2.19958,4.85566 4.85567,4.85566 0.53951,0 0.95453,-0.41501 0.95453,-0.95453 0,-0.49802 -0.41502,-0.95453 -0.95453,-0.95453 -1.66006,0 -2.9466,-1.28654 -2.9466,-2.9466 v -10.83187 h 2.90509 c 1.12054,0 2.11658,0.29051 3.02961,0.74703 v 10.08484 c 0,2.65609 2.19957,4.85566 4.85566,4.85566 h 0.95453 v -8.71529 c 0,-2.8221 -1.36954,-5.35368 -3.44461,-6.97224 h 2.49008 c 3.81813,0 6.93073,3.11261 6.93073,6.97224 v 7.76076 c 0,0.53952 0.41502,0.95453 0.95454,0.95453 0.49801,0 0.95453,-0.41501 0.95453,-0.95453 v -7.76076 c 0,-4.89717 -3.98414,-8.8398 -8.8398,-8.8398 h -4.85566 v 0.53952 c -0.95454,-0.33201 -1.95057,-0.53952 -3.02961,-0.53952 z m 9.75283,3.94263 c 1.24504,1.24505 2.03357,2.9881 2.03357,4.89717 v 6.64022 c -1.20354,-0.37351 -2.03357,-1.45255 -2.03357,-2.78059 z m 15.59942,-18.63412 v 20.8752 c 0,4.27464 1.57705,8.17578 4.23314,11.08087 0.16601,0.20751 0.41502,0.29051 0.70553,0.29051 0.53952,0 0.95453,-0.37351 0.95453,-0.91303 0,-0.24901 -0.1245,-0.45651 -0.24901,-0.62252 -2.32408,-2.61459 -3.77663,-6.0592 -3.77663,-9.83583 v -19.87917 c 7.71927,0.49802 13.77847,6.84773 13.77847,14.69149 v 15.64603 c 0,0.53952 0.45651,0.91303 0.95453,0.91303 0.53952,0 0.95453,-0.37351 0.95453,-0.91303 V 205.3445 c 0,-0.53952 -0.41501,-0.95454 -0.95453,-0.95454 -0.49802,0 -0.95453,0.41502 -0.95453,0.95454 v 7.96826 c -2.78059,-5.27067 -8.30028,-8.9228 -14.733,-8.9228 -0.53952,0 -0.91303,0.41502 -0.91303,0.95454 z m 37.96865,32.24658 c 0.53952,0 0.95453,-0.37351 0.95453,-0.91303 v -0.0415 -15.68753 c 0,-0.49802 -0.41501,-0.87153 -0.95453,-0.87153 -0.49802,0 -0.95453,0.37351 -0.95453,0.87153 v 2.53159 c -1.61856,-2.11657 -4.10864,-3.40312 -6.93074,-3.40312 h -8.71529 v 8.7153 c 0,4.85566 3.94263,8.79829 8.7983,8.79829 0.53951,0 0.95453,-0.41501 0.95453,-0.95453 0,-0.49802 -0.41502,-0.95453 -0.95453,-0.95453 -3.81813,0 -6.93074,-3.0711 -6.93074,-6.88923 v -6.88924 h 6.84773 c 3.85963,0 6.93074,3.11261 6.93074,6.97224 v 7.76076 c 0,0.53952 0.41501,0.95453 0.95453,0.95453 z"
         id="path30" />
      <path
         style="font-family:'Leaf Tech';-inkscape-font-specification:'Leaf Tech';text-align:center;text-anchor:middle"
         d="m 20.559707,283.87033 v -29.632 h 3.735126 v 16.26854 q 0,1.36955 -0.0415,3.07111 -0.0415,1.70156 -0.124505,3.1126 -0.0415,1.41105 -0.124504,2.07507 h 0.166006 l 15.687529,-24.52732 h 4.025636 v 29.632 h -3.735126 v -16.10255 q 0,-1.53555 0.0415,-3.27861 0.083,-1.74306 0.166006,-3.19561 0.083,-1.45255 0.124504,-2.07507 h -0.166006 l -15.770532,24.65184 z m 32.199985,0 v -22.24476 h 3.610622 v 13.57096 q 0,0.49802 -0.0415,1.45255 -0.0415,0.95453 -0.124504,1.90907 -0.0415,0.91303 -0.083,1.49405 h 0.0415 l 10.790364,-18.42663 h 4.523652 v 22.24476 h -3.610621 v -13.11445 q 0,-0.66402 0,-1.66005 0.0415,-1.03754 0.083,-1.99207 0.0415,-0.99603 0.083,-1.53555 h -0.0415 l -10.707361,18.30212 z m 43.280845,7.88526 q -1.037535,0 -1.826062,-0.166 -0.747025,-0.12451 -1.328045,-0.37352 v -3.1541 q 0.664023,0.166 1.452549,0.29051 0.788527,0.1245 1.701558,0.1245 1.079036,0 2.033568,-0.41501 0.996034,-0.37352 1.618555,-1.41105 0.66402,-0.99603 0.66402,-2.78059 L 83.631618,259.25999 h -0.166005 q 0.083,0.78853 0.124504,2.24108 0.083,1.45255 0.124504,3.11261 0.083,1.66005 0.083,3.1956 v 16.06105 h -3.444616 v -29.632 h 4.316145 l 15.81204,23.7388 h 0.166 q -0.1245,-1.32805 -0.2075,-3.65213 -0.083,-2.36558 -0.083,-4.64815 v -15.43852 h 3.48612 v 29.38299 q 0,4.15014 -2.11657,6.1422 -2.116576,1.99207 -5.685696,1.99207 z m 29.502383,2.07507 q -0.99604,0 -1.70156,-0.166 -0.70552,-0.12451 -1.24504,-0.33202 v -2.9466 q 0.58102,0.16601 1.16204,0.29051 0.58102,0.12451 1.32804,0.12451 1.20354,0 1.99207,-0.74703 0.78853,-0.70552 0.78853,-2.73909 v -17.7211 q 0,-5.31218 -4.93867,-5.31218 -3.69362,0 -5.14617,2.07507 -1.41105,2.03357 -1.41105,5.9347 v 11.5789 h -3.65212 v -22.24476 h 2.94659 l 0.58102,3.02961 h 0.20751 q 1.07904,-1.74306 2.9051,-2.57309 1.86756,-0.87153 4.02564,-0.87153 4.06713,0 6.1007,1.95057 2.03357,1.90906 2.03357,6.18371 v 17.8456 q 0,3.1126 -1.45255,4.85566 -1.45255,1.78456 -4.52365,1.78456 z m 20.62107,-41.25239 h 6.88923 v 22.53526 c 0,3.81813 -3.0711,6.88923 -6.88923,6.88923 h -6.88923 V 259.4675 c 0,-3.81813 3.0711,-6.88923 6.88923,-6.88923 z m 0,-1.90906 c -4.81416,0 -8.75679,3.94263 -8.75679,8.79829 v 24.40283 h 8.75679 c 4.85566,0 8.7983,-3.90114 8.7983,-8.7568 v -24.44432 z m 30.16639,15.64602 h -8.7153 c -4.27464,0 -7.84376,3.07111 -8.67379,7.09674 -0.12451,0.58102 -0.16601,1.16204 -0.16601,1.74306 v 8.7153 h 8.7568 c 4.85566,0 8.7983,-3.94264 8.7983,-8.7983 z m -1.90907,1.90907 v 6.84773 c 0,3.81813 -3.0711,6.88923 -6.88923,6.88923 h -6.84773 v -6.80623 c 0,-3.85963 3.0711,-6.93073 6.93073,-6.93073 z m 20.49656,-14.44249 q 2.07507,0 3.98413,0.45652 h 16.01954 v 3.27861 h -11.9109 v 9.25481 h 11.12238 v 3.23711 h -11.12238 v 10.58285 h 11.9109 v 3.27862 h -15.77053 q -0.91303,0.166 -1.95056,0.2905 -0.99604,0.12451 -2.07507,0.12451 -4.60666,0 -7.67776,-1.90907 -3.0296,-1.90906 -4.52366,-5.35368 -1.49405,-3.44461 -1.49405,-8.05127 0,-4.60665 1.45255,-8.00977 1.49405,-3.40311 4.48215,-5.27068 3.02961,-1.90906 7.55326,-1.90906 z m 0.33201,3.27861 q -5.10467,0 -7.51175,3.19561 -2.40708,3.1541 -2.40708,8.75679 0,5.60269 2.40708,8.8398 2.40708,3.19561 7.47025,3.19561 2.36558,0 4.10864,-0.70552 v -22.61827 q -1.70156,-0.66402 -4.06714,-0.66402 z m 51.58109,4.19164 q 4.19165,0 6.59873,2.73909 2.40708,2.6976 2.40708,7.26275 v 2.19957 h -14.7745 q 0.083,3.98414 1.78456,5.8517 1.74306,1.86756 4.93867,1.86756 2.19957,0 3.77662,-0.37351 1.61856,-0.41501 3.27861,-1.16204 v 3.19561 q -1.66005,0.74703 -3.27861,1.07904 -1.61855,0.37351 -3.81813,0.37351 -2.82209,0 -4.98016,-1.16204 -2.15808,-1.16204 -3.48612,-3.44462 -1.28654,2.28258 -3.40312,3.44462 -2.11657,1.16204 -4.85566,1.16204 -2.9051,0 -5.18767,-1.32805 -2.24108,-1.36954 -3.56913,-3.94263 -1.28654,-2.61459 -1.28654,-6.30821 0,-5.47819 2.69759,-8.46629 2.73909,-2.9881 7.47025,-2.9881 2.61459,0 4.68966,1.16204 2.07507,1.16204 3.32011,3.40312 1.20355,-2.19958 3.15411,-3.36162 1.99207,-1.20354 4.52365,-1.20354 z m -0.0415,2.9881 q -2.49008,0 -3.94263,1.61856 -1.45255,1.61855 -1.70156,4.68966 h 10.83187 q 0,-2.8636 -1.24504,-4.56516 -1.24505,-1.74306 -3.94264,-1.74306 z m -15.81203,0.0415 q -3.27861,0 -4.73116,2.11658 -1.45255,2.11657 -1.45255,6.30821 0,4.19164 1.49405,6.39121 1.49405,2.15808 4.77266,2.15808 3.23711,0 4.73116,-2.11657 1.49405,-2.11658 1.49405,-6.26672 0,-4.31614 -1.53555,-6.43271 -1.49405,-2.15808 -4.77266,-2.15808 z"
         id="path31" />
      <path
         style="font-family:'Leaf Tech';-inkscape-font-specification:'Leaf Tech';text-align:center;text-anchor:middle"
         d="m 27.666782,298.85751 h 6.889232 v 6.88923 c 0,3.81813 -3.071104,6.84773 -6.889232,6.84773 h -6.889233 v -6.84773 c 0,-3.81812 3.071104,-6.88923 6.889233,-6.88923 z m 0,-1.90906 c -4.855664,0 -8.798297,3.94263 -8.798297,8.79829 v 23.4898 c 0,0.53951 0.456515,0.91303 0.954532,0.91303 0.539518,0 0.954532,-0.37352 0.954532,-0.91303 v -14.733 h 6.889233 c 4.855663,0 8.798296,-3.94263 8.798296,-8.7568 v -8.79829 z m 12.61127,15.64602 v 24.44433 c 0,0.53952 0.415014,0.95453 0.954532,0.95453 0.498017,0 0.954532,-0.41501 0.954532,-0.95453 v -10.29235 c 1.618555,2.07507 4.067137,3.40312 6.889232,3.40312 h 8.756796 v -8.7983 c 0,-4.81416 -3.942633,-8.7568 -8.756796,-8.7568 z m 1.909064,1.86757 h 6.889232 c 3.818129,0 6.889233,3.0711 6.889233,6.88923 v 6.88923 h -6.889233 c -3.818128,0 -6.889232,-3.0711 -6.889232,-6.88923 z m 28.215821,-17.51359 c -4.814163,0 -8.756796,3.94263 -8.756796,8.79829 v 24.40283 h 0.913031 c 3.818129,0 6.889233,3.1126 6.889233,6.93073 0,0.53952 0.456515,0.91303 0.954532,0.91303 0.539518,0 0.954532,-0.37351 0.954532,-0.91303 0,-4.52365 -3.444616,-8.21728 -7.843765,-8.67379 v -22.65977 c 0,-3.81812 3.071104,-6.88923 6.889233,-6.88923 h 6.889232 v 22.53526 c 0,3.48612 -2.573087,6.34972 -5.9347,6.80623 v -15.23101 c 0,-0.49802 -0.415014,-0.91303 -0.954532,-0.91303 -0.498017,0 -0.954532,0.41501 -0.954532,0.91303 v 17.18158 h 0.954532 c 4.855664,0 8.798297,-3.90113 8.798297,-8.7568 v -24.44432 z m 29.211852,44.98751 h 0.0415 c 0.539521,0 0.913031,-0.41501 0.913031,-0.95453 0,-1.66005 1.32805,-2.9466 2.9881,-2.9881 0.49802,0 0.95453,-0.41501 0.95453,-0.91303 0,-0.53952 -0.45651,-0.95453 -0.95453,-0.95453 -1.12054,0 -2.15807,0.41501 -2.9881,1.03753 v -15.81203 c 0,-4.81416 -3.942634,-8.7568 -8.756796,-8.7568 h -8.798297 v 8.7568 c 0,4.85566 3.942633,8.7983 8.798297,8.7983 h 6.889232 v 10.83186 c 0,0.53952 0.373513,0.95453 0.913031,0.95453 z M 84.923294,314.46204 h 6.889232 c 3.818129,0 6.889232,3.0711 6.889232,6.88923 v 6.88923 h -6.889232 c -3.818129,0 -6.889232,-3.0711 -6.889232,-6.88923 z m 32.158426,-15.60453 h 6.88923 v 6.88923 c 0,3.81813 -3.0711,6.84773 -6.88923,6.84773 h -6.88924 v -6.84773 c 0,-3.81812 3.07111,-6.88923 6.88924,-6.88923 z m 5.31218,13.73696 c 2.11657,-1.57705 3.48611,-4.02563 3.48611,-6.84773 v -8.79829 h -8.79829 c -4.81417,0 -8.7568,3.94263 -8.7568,8.79829 v 23.4898 c 0,0.53951 0.41501,0.91303 0.91303,0.91303 0.53952,0 0.95453,-0.37352 0.95453,-0.91303 v -14.733 h 6.88924 c 1.32804,0 2.53158,-0.29051 3.65212,-0.78853 l 0.49802,0.49802 c 1.70155,1.90906 2.73909,4.44065 2.73909,7.17974 v 7.84377 c 0,0.53951 0.41501,0.91303 0.95453,0.91303 0.53952,0 0.95453,-0.37352 0.95453,-0.91303 v -7.84377 c 0,-3.32011 -1.32804,-6.64022 -3.48611,-8.7983 z m 9.8307,-2.03356 h 0.99603 c 0.58102,0 0.99604,0.45651 0.99604,0.99603 v 1.07904 h -0.99604 c -0.58102,0 -0.99603,-0.49802 -0.99603,-1.07904 z m -1.90906,-1.86757 v 2.8636 c 0,1.61855 1.32804,2.9051 2.90509,2.9051 h 0.99604 v 6.88923 c 0,3.81813 -3.07111,6.88923 -6.88924,6.88923 -0.49801,0 -0.95453,0.45652 -0.95453,0.95453 0,0.53952 0.45652,0.95454 0.95453,0.95454 4.85567,0 8.7983,-3.94264 8.7983,-8.7983 v -6.88923 h 1.66006 c 2.36558,0 4.27464,1.90906 4.27464,4.27464 v 6.55722 c 0,2.65609 2.19958,4.85567 4.85567,4.85567 0.53951,0 0.95453,-0.41502 0.95453,-0.95454 0,-0.49801 -0.41502,-0.95453 -0.95453,-0.95453 -1.66006,0 -2.9466,-1.28654 -2.9466,-2.9466 v -6.55722 c 0,-3.36161 -2.7806,-6.1007 -6.18371,-6.1007 h -1.66006 v -1.07904 c 0,-1.57705 -1.32804,-2.8636 -2.9051,-2.8636 z m 21.36805,-11.74489 v 8.71529 c 0,4.89717 3.98414,8.8398 8.8398,8.8398 h 6.84773 v 6.88923 c 0,3.81813 -3.0711,6.88923 -6.93073,6.88923 h -6.84773 v -6.80623 c 0,-0.53951 -0.41502,-0.95453 -0.95453,-0.95453 -0.49802,0 -0.95454,0.41502 -0.95454,0.95453 v 8.6738 h 8.7568 c 4.85566,0 8.8398,-3.90113 8.8398,-8.7568 v -8.7983 h -8.7568 c -3.81813,0 -6.93073,-3.0711 -6.93073,-6.93073 v -6.80623 h 6.84773 c 3.85963,0 6.93073,3.07111 6.93073,6.88923 0,0.53952 0.41502,0.95454 0.95454,0.95454 0.49801,0 0.95453,-0.41502 0.95453,-0.95454 0,-4.85566 -3.98414,-8.79829 -8.8398,-8.79829 z m 38.59114,19.75466 c 0,-0.1245 -0.0415,-0.249 -0.083,-0.37351 -0.91303,-2.07507 -3.0711,-3.73513 -5.68569,-3.73513 h -11.41288 v 3.56913 c 0,3.36161 2.78059,6.1422 6.1837,6.1422 h 9.50382 v 1.66006 c 0,2.36558 -1.90906,4.27464 -4.27464,4.27464 h -10.45835 c -0.53952,0 -0.95453,0.45652 -0.95453,0.95453 0,0.53952 0.41501,0.95454 0.95453,0.95454 h 10.45835 c 3.40311,0 6.14221,-2.7806 6.14221,-6.18371 v -3.52762 h -11.37139 c -2.36558,0 -4.27464,-1.90906 -4.27464,-4.27464 v -1.70156 h 9.50382 c 1.82606,0 3.32011,1.16204 3.94263,2.61459 0.12451,0.33201 0.45652,0.58102 0.87153,0.58102 0.53952,0 0.95453,-0.45652 0.95453,-0.95454 z m 4.51852,13.44646 v -3.07111 l 9.79433,-12.24291 -9.37931,-11.20538 v -3.1126 h 19.63016 v 3.32011 h -10.66586 q -0.91303,0 -2.24108,0 -1.28654,0 -1.95056,-0.0415 l 8.50779,10.08484 v 1.12054 l -9.42082,11.8279 q 1.57705,0 3.0296,0 1.49405,-0.0415 3.15411,-0.0415 h 10.08484 v 3.36162 z M 227.28374,298.401 q 0.91303,0 1.70156,0.2075 0.78853,0.16601 1.20354,0.45652 v 2.78059 q -0.33201,-0.166 -0.95453,-0.29051 -0.62252,-0.166 -1.20354,-0.166 -1.28655,0 -1.95057,0.78852 -0.62252,0.74703 -0.62252,3.19561 v 27.80594 q 0,2.69759 -0.74702,4.19164 -0.74703,1.53555 -1.99207,2.11657 -1.24504,0.62252 -2.73909,0.62252 -0.91304,0 -1.70156,-0.2075 -0.74703,-0.16601 -1.20354,-0.45652 v -2.78059 q 0.33201,0.166 0.99603,0.29051 0.62252,0.166 1.16204,0.166 1.28654,0 1.90906,-0.78852 0.66403,-0.74703 0.66403,-3.19561 v -27.80594 q 0,-2.73909 0.74702,-4.23314 0.74703,-1.49405 1.99207,-2.07507 1.28654,-0.62252 2.73909,-0.62252 z m 10.45321,-1.45255 c -3.40312,0 -6.18371,2.78059 -6.18371,6.18371 0,0.49801 0.41501,0.95453 0.95453,0.95453 0.53952,0 0.95453,-0.45652 0.95453,-0.95453 0,-2.36558 1.90907,-4.27465 4.27465,-4.27465 h 1.66005 c 0,5.60269 0,11.20538 0,16.76657 0,2.82209 0,5.60269 0,8.38328 0,3.40311 2.7806,6.14221 6.18371,6.14221 0.53952,0 0.95453,-0.37352 0.95453,-0.91303 0,-0.49802 -0.41501,-0.95454 -0.95453,-0.95454 -2.36558,0 -4.31614,-1.86756 -4.31614,-4.15014 0,0 0,-0.0415 0.0415,-0.083 v -25.19135 h 6.88923 c 0.49802,0 0.91303,-0.45651 0.91303,-0.95453 0,-0.53952 -0.41501,-0.95453 -0.91303,-0.95453 z m 9.08367,7.80226 c -0.53952,0 -0.95453,0.41501 -0.95453,0.95453 v 15.60453 c 0,4.85566 3.98413,8.8398 8.8398,8.8398 0.53952,0 0.95453,-0.41502 0.95453,-0.95454 0,-0.49801 -0.41501,-0.95453 -0.95453,-0.95453 -3.85963,0 -6.93074,-3.0711 -6.93074,-6.93073 v -6.84773 h 6.84773 c 0.53952,0 0.95454,-0.41502 0.95454,-0.95453 0,-0.49802 -0.41502,-0.91304 -0.95454,-0.91304 h -6.84773 v -6.88923 c 0,-0.53952 -0.45651,-0.95453 -0.95453,-0.95453 z"
         id="path32" />
      <path
         style="font-family:'Leaf Tech';-inkscape-font-specification:'Leaf Tech';text-align:center;text-anchor:middle"
         d="m 28.387848,376.42881 v -12.53342 q -2.158073,0.74702 -3.984134,1.07903 -1.784561,0.29051 -3.569121,0.29051 -9.50382,0 -9.50382,-8.59079 v -9.87733 h 3.693624 v 9.33781 q 0,3.23711 1.494051,4.60666 1.535551,1.32804 4.938666,1.32804 1.701558,0 3.486118,-0.37351 1.78456,-0.37351 3.444616,-0.99603 v -13.90297 h 3.735126 v 29.632 z m 26.348278,0 v -8.8398 q -3.237109,1.28654 -6.391216,1.28654 -8.383282,0 -8.383282,-7.51175 v -7.17974 h 3.652123 v 6.84773 q 0,2.53159 1.245042,3.69362 1.286543,1.12054 4.067137,1.12054 2.988101,0 5.810196,-1.20354 v -10.45835 h 3.652123 v 22.24475 z m 10.702265,-33.20112 c -0.498017,0 -0.954532,0.41501 -0.954532,0.95453 v 23.44829 c 0,4.85567 3.984134,8.7983 8.839798,8.7983 h 8.756795 v -32.24659 c 0,-0.53952 -0.456515,-0.95453 -0.954532,-0.95453 -0.539518,0 -0.954532,0.41501 -0.954532,0.95453 v 30.37903 h -6.847731 c -3.818129,0 -6.930734,-3.07111 -6.930734,-6.93074 v -23.44829 c 0,-0.53952 -0.415014,-0.95453 -0.954532,-0.95453 z m 21.409565,15.64603 c -0.539518,0 -0.954532,0.41501 -0.954532,0.91303 v 7.80226 c 0,4.85566 3.984134,8.8398 8.839798,8.8398 h 8.715298 v -16.64206 c 0,-0.49802 -0.41502,-0.91303 -0.91304,-0.91303 -0.53951,0 -0.95453,0.41501 -0.95453,0.91303 v 14.73299 h -6.847728 c -3.85963,0 -6.930734,-3.0711 -6.930734,-6.93073 v -7.80226 c 0,-0.49802 -0.456515,-0.91303 -0.954532,-0.91303 z m 32.988484,17.9701 q -3.23711,0 -5.8102,-1.16204 -2.57309,-1.20354 -4.10864,-3.44461 -1.49405,-2.24108 -1.49405,-5.43669 0,-3.40311 1.61856,-5.43668 1.66005,-2.07507 4.56515,-2.9466 -2.40708,-0.99603 -3.56912,-3.0296 -1.12054,-2.07507 -1.12054,-4.93867 v -3.65212 h 3.73513 v 3.65212 q 0,2.8221 1.49405,4.64816 1.53555,1.82606 4.77266,1.82606 3.27861,0 4.77266,-1.82606 1.53555,-1.82606 1.53555,-4.64816 v -3.65212 h 3.73513 v 3.65212 q 0,2.9051 -1.16204,4.93867 -1.16204,2.03357 -3.61062,3.0711 2.82209,0.87153 4.52365,2.9466 1.74306,2.03357 1.74306,5.39518 0,3.19561 -1.45255,5.43669 -1.45255,2.24107 -4.06714,3.44461 -2.57309,1.16204 -6.1007,1.16204 z m 0.083,-3.23711 q 3.94263,0 5.76869,-1.78456 1.82606,-1.82606 1.82606,-5.02167 0,-3.1956 -1.86756,-4.93866 -1.82606,-1.74306 -5.76869,-1.74306 -3.90113,0 -5.7272,1.74306 -1.78456,1.74306 -1.78456,4.93866 0,3.19561 1.82607,5.02167 1.82606,1.78456 5.72719,1.78456 z m 27.55179,3.23711 q -2.9466,0 -5.27068,-1.20354 -2.28258,-1.20354 -3.61062,-3.52762 -1.32805,-2.32407 -1.32805,-5.60269 0,-3.48611 1.41105,-5.60268 1.41105,-2.15808 3.98413,-3.07111 -1.99206,-0.70552 -2.9881,-2.49008 -0.99603,-1.78456 -0.99603,-5.10467 v -5.35368 h 3.65212 v 5.22917 q 0,3.27861 1.24504,4.73116 1.28655,1.45255 3.98414,1.45255 2.69759,0 3.94263,-1.45255 1.28654,-1.45255 1.28654,-4.73116 v -5.22917 h 3.65213 v 5.35368 q 0,3.36161 -1.03754,5.14617 -0.99603,1.78456 -2.9881,2.49008 2.49009,0.91303 3.94263,3.07111 1.49406,2.11657 1.49406,5.56118 0,4.93867 -2.8221,7.63626 -2.78059,2.69759 -7.55325,2.69759 z m 0.083,-3.0296 q 3.36161,0 4.93866,-1.95056 1.57706,-1.95057 1.57706,-5.35369 0,-3.36161 -1.57706,-5.27067 -1.57705,-1.90907 -4.98016,-1.90907 -3.40312,0 -4.93867,1.90907 -1.53555,1.90906 -1.53555,5.27067 0,3.40312 1.53555,5.35369 1.57705,1.95056 4.98017,1.95056 z m 21.07762,-30.58653 c -3.40312,0 -6.14221,2.78059 -6.14221,6.18371 v 27.01741 h 0.91303 c 9.17181,0 16.64206,-7.42875 16.64206,-16.55906 v -15.68753 c 0,-0.53952 -0.41501,-0.95453 -0.95453,-0.95453 -0.49802,0 -0.95453,0.41501 -0.95453,0.95453 v 15.68753 c 0,7.80226 -6.05921,14.15198 -13.77847,14.64999 V 349.4114 c 0,-2.36558 1.90907,-4.27465 4.27465,-4.27465 0.53951,0 0.95453,-0.45651 0.95453,-0.95453 0,-0.53952 -0.41502,-0.95453 -0.95453,-0.95453 z m 15.22588,16.55906 c 0,0.24901 0.083,0.49801 0.249,0.66402 1.70156,1.90906 2.7391,4.39915 2.7391,7.17974 v 8.7983 h 3.1956 c 6.26672,0 11.37139,-5.10467 11.37139,-11.41289 v -5.22917 c 0,-0.49802 -0.41502,-0.91303 -0.91303,-0.91303 -0.53952,0 -0.95454,0.41501 -0.95454,0.91303 v 5.22917 c 0,5.27068 -4.27464,9.50382 -9.50382,9.50382 h -1.28654 v -6.88923 c 0,-3.23711 -1.24504,-6.22521 -3.23711,-8.46628 -0.166,-0.16601 -0.41501,-0.29051 -0.70552,-0.29051 -0.53952,0 -0.95453,0.41501 -0.95453,0.91303 z m 37.96864,-10.66586 c -0.53951,0 -0.91303,0.37351 -0.91303,0.95453 v 17.59659 c 0,3.81813 -3.0711,6.88924 -6.88923,6.88924 h -6.88923 V 349.4114 c 0,-2.36558 1.90906,-4.27465 4.27464,-4.27465 0.49802,0 0.95453,-0.45651 0.95453,-0.95453 0,-0.53952 -0.45651,-0.95453 -0.95453,-0.95453 -3.40311,0 -6.18371,2.78059 -6.18371,6.18371 v 27.01741 h 8.7983 c 3.44462,0 6.39122,-1.95057 7.80226,-4.85566 1.45255,2.90509 4.39915,4.85566 7.84377,4.85566 h 8.79829 V 349.4114 c 0,-3.40312 -2.78059,-6.18371 -6.1837,-6.18371 -0.49802,0 -0.95454,0.41501 -0.95454,0.95453 0,0.49802 0.45652,0.95453 0.95454,0.95453 2.36558,0 4.27464,1.90907 4.27464,4.27465 v 25.14985 h -6.88923 c -3.81813,0 -6.88923,-3.07111 -6.88923,-6.88924 v -17.59659 -0.0415 c 0,-0.53952 -0.41502,-0.91303 -0.95454,-0.91303 z m 38.34217,10.66586 c 0,0.24901 0.083,0.49801 0.249,0.66402 1.70156,1.90906 2.7391,4.39915 2.7391,7.17974 v 6.88923 h -5.56119 c -1.66006,0 -2.9466,-1.28654 -2.9881,-2.90509 v -0.0415 -6.55723 c 0,-0.49801 -0.41502,-0.95453 -0.91303,-0.95453 h -0.0415 c -0.49802,0 -0.91304,0.45652 -0.91304,0.95453 v 6.55723 0.0415 c -0.0415,1.61855 -1.32804,2.90509 -2.9881,2.90509 h -5.56118 v -6.88923 c 0,-2.78059 1.03753,-5.27068 2.73909,-7.17974 0.166,-0.16601 0.24901,-0.41501 0.24901,-0.66402 0,-0.49802 -0.41502,-0.91303 -0.95454,-0.91303 -0.29051,0 -0.53951,0.1245 -0.70552,0.29051 -1.99207,2.24107 -3.23711,5.22917 -3.23711,8.46628 v 8.7983 h 7.47025 c 1.61856,0 3.02961,-0.78853 3.94264,-1.99207 0.87153,1.20354 2.28257,1.99207 3.90113,1.99207 h 7.47025 v -8.7983 c 0,-3.23711 -1.20354,-6.22521 -3.23711,-8.46628 -0.166,-0.16601 -0.41501,-0.29051 -0.70552,-0.29051 -0.53952,0 -0.95453,0.41501 -0.95453,0.91303 z"
         id="path33" />
      <path
         style="font-family:'Leaf Tech';-inkscape-font-specification:'Leaf Tech';text-align:center;text-anchor:middle"
         d="m 56.331373,407.85055 q 0,4.60666 -1.577053,8.05127 -1.535552,3.40312 -4.565154,5.31218 -3.029602,1.90907 -7.511753,1.90907 -4.606656,0 -7.677759,-1.90907 -3.029603,-1.90906 -4.523653,-5.35368 -1.49405,-3.44462 -1.49405,-8.05127 0,-4.56516 1.49405,-7.96827 1.49405,-3.40311 4.523653,-5.31218 3.071103,-1.90906 7.71926,-1.90906 4.44065,0 7.470252,1.90906 3.029602,1.86756 4.565154,5.31218 1.577053,3.40311 1.577053,8.00977 z m -23.406789,0 q 0,5.60269 2.365579,8.8398 2.36558,3.19561 7.38725,3.19561 5.06317,0 7.387249,-3.19561 2.324078,-3.23711 2.324078,-8.8398 0,-5.60269 -2.324078,-8.7568 -2.324079,-3.1956 -7.345748,-3.1956 -5.021669,0 -7.428751,3.1956 -2.365579,3.15411 -2.365579,8.7568 z m 46.896582,0 q 0,4.60666 -1.577054,8.05127 -1.535551,3.40312 -4.565154,5.31218 -3.029602,1.90907 -7.511753,1.90907 -4.606655,0 -7.677759,-1.90907 -3.029602,-1.90906 -4.523653,-5.35368 -1.49405,-3.44462 -1.49405,-8.05127 0,-4.56516 1.49405,-7.96827 1.494051,-3.40311 4.523653,-5.31218 3.071104,-1.90906 7.71926,-1.90906 4.44065,0 7.470252,1.90906 3.029603,1.86756 4.565154,5.31218 1.577054,3.40311 1.577054,8.00977 z m -23.40679,0 q 0,5.60269 2.36558,8.8398 2.36558,3.19561 7.387249,3.19561 5.063171,0 7.387249,-3.19561 2.324079,-3.23711 2.324079,-8.8398 0,-5.60269 -2.324079,-8.7568 -2.324078,-3.1956 -7.345748,-3.1956 -5.021669,0 -7.42875,3.1956 -2.36558,3.15411 -2.36558,8.7568 z m 50.128574,3.69362 q 0,5.51969 -2.8221,8.54929 -2.78059,3.02961 -7.553252,3.02961 -2.946599,0 -5.270678,-1.32805 -2.282577,-1.36955 -3.610622,-3.94263 -1.328044,-2.61459 -1.328044,-6.30822 0,-5.51968 2.780593,-8.50778 2.780594,-2.9881 7.553255,-2.9881 3.029602,0 5.312178,1.36954 2.32408,1.32805 3.61062,3.90113 1.32805,2.53159 1.32805,6.22521 z m -16.808069,0 q 0,3.94264 1.535552,6.26672 1.577053,2.28257 4.980168,2.28257 3.361613,0 4.938669,-2.28257 1.57705,-2.32408 1.57705,-6.26672 0,-3.94263 -1.57705,-6.1837 -1.577056,-2.24108 -4.980171,-2.24108 -3.403114,0 -4.938666,2.24108 -1.535552,2.24107 -1.535552,6.1837 z m 33.699139,0 q 0,5.51969 -2.8221,8.54929 -2.78059,3.02961 -7.55325,3.02961 -2.9466,0 -5.27068,-1.32805 -2.28258,-1.36955 -3.61062,-3.94263 -1.32805,-2.61459 -1.32805,-6.30822 0,-5.51968 2.7806,-8.50778 2.78059,-2.9881 7.55325,-2.9881 3.0296,0 5.31218,1.36954 2.32408,1.32805 3.61062,3.90113 1.32805,2.53159 1.32805,6.22521 z m -16.80807,0 q 0,3.94264 1.53555,6.26672 1.57706,2.28257 4.98017,2.28257 3.36161,0 4.93867,-2.28257 1.57705,-2.32408 1.57705,-6.26672 0,-3.94263 -1.57705,-6.1837 -1.57706,-2.24108 -4.98017,-2.24108 -3.40312,0 -4.93867,2.24108 -1.53555,2.24107 -1.53555,6.1837 z m 21.65863,-21.08271 c 0,0.16601 0.0415,0.29051 0.083,0.41502 l 7.67776,15.35552 c -1.78456,6.34971 -3.1541,10.00183 -4.23314,11.9939 -1.16204,2.07507 -1.82606,2.40708 -2.8221,2.65609 -0.41501,0.1245 -0.70552,0.49802 -0.70552,0.91303 0,0.58102 0.45652,0.91303 0.95453,0.91303 0.083,0 0.16601,0.0415 0.24901,0 1.32805,-0.33201 2.69759,-1.24504 3.98413,-3.56912 1.12054,-1.99207 2.32408,-5.27068 3.81813,-10.41685 l 6.76473,13.48795 c 0.16601,0.33202 0.45652,0.49802 0.83003,0.49802 0.58102,0 0.95453,-0.41501 0.95453,-0.91303 0,-0.1245 -0.0415,-0.29051 -0.083,-0.41501 l -7.67776,-15.35552 c 1.78456,-6.34972 3.15411,-10.00184 4.23314,-11.99391 1.16204,-2.07507 1.82606,-2.40708 2.8221,-2.65609 0.41501,-0.1245 0.70552,-0.49801 0.70552,-0.91303 0,-0.58102 -0.45651,-0.95453 -0.95453,-0.95453 -0.083,0 -0.16601,-0.0415 -0.24901,0 -1.28654,0.33201 -2.69759,1.28654 -3.98413,3.61062 -1.12054,1.99207 -2.32408,5.27068 -3.81813,10.41685 l -6.76473,-13.48795 c -0.16601,-0.33201 -0.45652,-0.53952 -0.83003,-0.53952 -0.58102,0 -0.95453,0.45652 -0.95453,0.95453 z m 22.32262,14.6915 c -0.53952,0 -0.95453,0.41501 -0.95453,0.91303 0,0.53952 0.41501,0.95453 0.95453,0.95453 2.11657,0 4.15014,0.45652 5.9347,1.28655 -4.15014,3.0296 -6.88923,7.92676 -6.88923,13.44645 0,0.53952 0.41501,0.95453 0.95453,0.95453 0.49802,0 0.95453,-0.41501 0.95453,-0.95453 0,-5.27068 2.73909,-9.83583 6.88923,-12.45042 4.10864,2.61459 6.88924,7.17974 6.88924,12.45042 0,0.53952 0.41501,0.95453 0.95453,0.95453 0.49802,0 0.91303,-0.41501 0.91303,-0.95453 0,-5.51969 -2.69759,-10.41685 -6.88923,-13.44645 1.82606,-0.83003 3.81813,-1.28655 5.9762,-1.28655 0.49802,0 0.91303,-0.41501 0.91303,-0.95453 0,-0.49802 -0.41501,-0.91303 -0.91303,-0.91303 -2.8636,0 -5.51969,0.70552 -7.84377,1.95056 -2.36558,-1.24504 -5.02167,-1.95056 -7.84376,-1.95056 z m 21.36809,-15.64603 c -0.53952,0 -0.95453,0.41502 -0.95453,0.95453 v 7.76077 c 0,4.89716 3.98413,8.83979 8.83979,8.83979 h 6.84773 v 6.88924 c 0,3.81812 -3.0711,6.88923 -6.88923,6.88923 -0.53952,0 -0.95453,0.45651 -0.95453,0.95453 0,0.53952 0.41501,0.91303 0.95453,0.91303 4.81416,0 8.7983,-3.90113 8.7983,-8.75679 v -23.4898 c 0,-0.53951 -0.45652,-0.95453 -0.95453,-0.95453 -0.53952,0 -0.95454,0.41502 -0.95454,0.95453 v 14.6915 h -6.84773 c -3.81813,0 -6.93073,-3.0711 -6.93073,-6.93073 v -7.76077 c 0,-0.53951 -0.41501,-0.95453 -0.95453,-0.95453 z m 38.01012,32.24659 v -15.68753 c 0,-0.49802 -0.41502,-0.91303 -0.91303,-0.91303 -0.53952,0 -0.95453,0.41501 -0.95453,0.91303 v 14.733 h -6.84774 c -3.85963,0 -6.93073,-3.07111 -6.93073,-6.93074 v -7.80226 c 0,-0.49802 -0.45651,-0.91303 -0.95453,-0.91303 -0.53952,0 -0.95453,0.41501 -0.95453,0.91303 v 7.80226 c 0,4.85567 3.98413,8.8398 8.83979,8.8398 h 6.72323 c -0.41501,2.28258 -2.40708,3.98414 -4.81416,3.98414 h -9.79433 c -0.53952,0 -0.95453,0.41501 -0.95453,0.95453 0,0.49801 0.41501,0.95453 0.95453,0.95453 h 9.79433 c 3.73512,0 6.80623,-3.0711 6.80623,-6.84773 z m 4.76753,-32.24659 c -0.53952,0 -0.95454,0.41502 -0.95454,0.95453 0,0.49802 0.41502,0.95454 0.95454,0.95454 h 12.49192 c -8.38329,6.0177 -13.44646,15.72903 -13.44646,26.18738 v 4.19164 c 0,0.53952 0.41502,0.91303 0.95454,0.91303 h 10.45835 c 3.40311,0 6.14221,-2.73909 6.14221,-6.14221 0,-0.49801 -0.41502,-0.95453 -0.91303,-0.95453 -0.53952,0 -0.95454,0.45652 -0.95454,0.95453 0,1.16204 -0.45651,2.19958 -1.16204,2.9466 -0.78852,0.83003 -1.90906,1.32805 -3.1126,1.32805 h -9.50382 v -3.23711 c 0,-10.87337 5.76869,-20.87521 15.18951,-26.31189 0.29051,-0.166 0.45652,-0.49802 0.45652,-0.83003 0,-0.53951 -0.41502,-0.95453 -0.91303,-0.95453 z m 33.40347,16.60056 v -0.0415 c 0,-0.53952 -0.41501,-0.91303 -0.91303,-0.91303 h -1.99206 -13.69547 c -0.53951,0 -0.95453,0.41501 -0.95453,0.91303 0,0.53952 0.41502,0.95453 0.95453,0.95453 h 6.51572 c -4.44065,2.53159 -7.47025,7.30425 -7.47025,12.78243 v 2.9051 h 10.33385 c -0.41501,1.90907 -2.11657,3.32011 -4.15014,3.32011 -0.53952,0 -0.95453,0.41502 -0.95453,0.95454 0,0.53951 0.41501,0.95453 0.95453,0.95453 3.11261,0 5.64419,-2.24108 6.0592,-5.22918 2.98811,-0.41501 5.31218,-3.0711 5.31218,-6.18371 v -0.95453 h -0.91303 c -3.1126,0 -5.64419,2.28258 -6.1007,5.22918 h -8.63229 v -0.99604 c 0,-7.05523 5.68569,-12.78243 12.74093,-12.78243 h 1.99206 c 0.53952,0 0.91303,-0.37351 0.91303,-0.91303 z m -2.03356,11.53739 c -0.41502,1.45255 -1.53556,2.61459 -3.02961,2.9881 0.41502,-1.45255 1.53555,-2.61459 3.02961,-2.9881 z"
         id="path34" />
    </g>
  </g>
</svg>
